<svg xmlns="http://www.w3.org/2000/svg" width="16.325" height="14.75" viewBox="0 0 16.325 14.75"><g transform="translate(-2.12 -4.119)"><path d="M16,13v2.82l2.256-1.128" transform="translate(-5.69 -3.51)" fill="none" stroke="#707070" stroke-linecap="round" stroke-linejoin="round" stroke-miterlimit="10" stroke-width="1.3"/><path d="M3.711,5.744a2.52,2.52,0,0,0,0,3.61l3.61-3.61A2.624,2.624,0,0,0,3.711,5.744Z" transform="translate(0 -0.033)" fill="none" stroke="#707070" stroke-linecap="round" stroke-linejoin="round" stroke-miterlimit="10" stroke-width="1.3"/><path d="M24.91,5.711a2.52,2.52,0,0,0-3.61,0l3.61,3.61A2.624,2.624,0,0,0,24.91,5.711Z" transform="translate(-8.001)" fill="none" stroke="#707070" stroke-linecap="round" stroke-linejoin="round" stroke-miterlimit="10" stroke-width="1.3"/><line y1="1.692" x2="1.692" transform="translate(4.67 16.258)" fill="none" stroke="#707070" stroke-linecap="round" stroke-linejoin="round" stroke-miterlimit="10" stroke-width="1.3"/><line x1="1.692" y1="1.692" transform="translate(14.258 16.258)" fill="none" stroke="#707070" stroke-linecap="round" stroke-linejoin="round" stroke-miterlimit="10" stroke-width="1.3"/><circle cx="5.076" cy="5.076" r="5.076" transform="translate(5.234 7.234)" fill="none" stroke="#707070" stroke-linecap="round" stroke-linejoin="round" stroke-miterlimit="10" stroke-width="1.3"/></g></svg>