<svg xmlns="http://www.w3.org/2000/svg" width="14" height="14.607" viewBox="0 0 14 14.607"><g transform="translate(-4.455 -4.455)"><path d="M12.309,20.118a6.684,6.684,0,1,1,6.684-6.684A6.684,6.684,0,0,1,12.309,20.118Zm0-12.153a5.469,5.469,0,1,0,5.469,5.469A5.469,5.469,0,0,0,12.309,7.965Z" transform="translate(-0.538 -1.055)" fill="#707070"/><path d="M19.057,18.451,16.875,16.27V12.375H18.09v3.39l1.823,1.829Z" transform="translate(-5.712 -3.642)" fill="#707070"/><path d="M4.455,6.188H7.536V7.4H4.455Z" transform="translate(0 -0.797)" fill="#707070"/><path d="M27.563,4.455h1.215V7.536H27.563Z" transform="translate(-10.627)" fill="#707070"/></g></svg>