<svg xmlns="http://www.w3.org/2000/svg" width="24.249" height="24.249" viewBox="0 0 24.249 24.249"><g transform="translate(-2.25 -2.25)"><path d="M16.875,2.25h1.732v4.3H16.875Z" transform="translate(-3.367 0)" fill="#707070"/><path d="M24.4,9.093l3.037-3.037L28.66,7.282l-3.037,3.037Z" transform="translate(-5.098 -0.876)" fill="#707070"/><path d="M28.17,16.875h4.3v1.732h-4.3Z" transform="translate(-5.967 -3.367)" fill="#707070"/><path d="M24.4,25.625,25.63,24.4l3.037,3.038-1.225,1.224Z" transform="translate(-5.1 -5.099)" fill="#707070"/><path d="M16.875,28.17h1.732v4.3H16.875Z" transform="translate(-3.367 -5.967)" fill="#707070"/><path d="M6.072,27.444l3.037-3.037,1.225,1.225L7.3,28.669Z" transform="translate(-0.88 -5.1)" fill="#707070"/><path d="M2.25,16.875h4.3v1.732H2.25Z" transform="translate(0 -3.367)" fill="#707070"/><path d="M6.064,7.287,7.29,6.064,10.327,9.1,9.1,10.326Z" transform="translate(-0.878 -0.878)" fill="#707070"/><path d="M16.446,12.982a3.464,3.464,0,1,1-3.464,3.464,3.464,3.464,0,0,1,3.464-3.464m0-1.732a5.2,5.2,0,1,0,5.2,5.2A5.2,5.2,0,0,0,16.446,11.25Z" transform="translate(-2.072 -2.072)" fill="#707070"/></g></svg>