<svg xmlns="http://www.w3.org/2000/svg" width="17.041" height="17.182" viewBox="0 0 17.041 17.182"><path d="M31.625,24.055H18.232V17.778a1.788,1.788,0,0,1,.527-1.272l.014-.014a1.8,1.8,0,0,1,2.044-.354,2.759,2.759,0,0,0,.411,3.37l.382.382-.7.7.789.789.7-.7h0l3.9-3.9h0l.7-.7-.789-.789-.7.7-.382-.382A2.758,2.758,0,0,0,21.6,15.3a2.916,2.916,0,0,0-3.619.4l-.014.014a2.9,2.9,0,0,0-.854,2.062v6.278H16v1.116h1.116v1.071a.835.835,0,0,0,.043.265L18.2,29.621a.836.836,0,0,0,.794.572h.45l-.407,1.4H20.2l.407-1.4h7.258l.419,1.4h1.165l-.419-1.4h.723a.836.836,0,0,0,.794-.572l1.038-3.115a.836.836,0,0,0,.043-.265V25.171h1.116V24.055ZM22.017,16.4a1.64,1.64,0,0,1,2.317,0l.382.382L22.4,19.1l-.382-.382A1.64,1.64,0,0,1,22.017,16.4Zm8.492,9.8-.96,2.881H19.192l-.96-2.881V25.171H30.509Z" transform="translate(-15.85 -14.558)" fill="#707070" stroke="#707070" stroke-width="0.3"/></svg>