<svg xmlns="http://www.w3.org/2000/svg" width="22.6" height="22.784" viewBox="0 0 22.6 22.784"><path d="M21.75,13.125h-18V4.688a2.4,2.4,0,0,1,.708-1.71l.019-.019a2.423,2.423,0,0,1,2.747-.476,3.708,3.708,0,0,0,.552,4.529l.513.513-.945.945L8.4,9.531l.945-.945L14.585,3.35,15.53,2.4,14.469,1.344l-.945.945-.513-.513A3.707,3.707,0,0,0,8.28,1.355,3.919,3.919,0,0,0,3.417,1.9L3.4,1.917A3.893,3.893,0,0,0,2.25,4.688v8.438H.75v1.5h1.5v1.439a1.123,1.123,0,0,0,.058.356l1.4,4.185a1.124,1.124,0,0,0,1.067.769h.6L4.828,23.25H6.39l.548-1.875h9.755l.563,1.875h1.566l-.563-1.875h.972a1.124,1.124,0,0,0,1.066-.769l1.4-4.186a1.124,1.124,0,0,0,.058-.356V14.625h1.5v-1.5ZM8.837,2.837a2.2,2.2,0,0,1,3.114,0l.513.513L9.35,6.464l-.513-.513a2.2,2.2,0,0,1,0-3.114ZM20.25,16l-1.291,3.872H5.041L3.75,16V14.625h16.5Z" transform="translate(-0.7 -0.516)" fill="#707070" stroke="#707070" stroke-width="0.1"/></svg>