<svg xmlns="http://www.w3.org/2000/svg" width="21.1" height="17.875" viewBox="0 0 21.1 17.875"><g transform="translate(-1.45 -2.95)"><path d="M21.75,3H13.5l-.525.225L12,4.185l-.975-.96L10.5,3H2.25l-.75.75v15l.75.75h7.935l1.29,1.275h1.05l1.29-1.275H21.75l.75-.75v-15ZM11.25,18.48l-.27-.255L10.5,18H3V4.5h7.185l1.11,1.11L11.25,18.48ZM21,18H13.5l-.525.225-.21.195V5.55l1.05-1.05H21ZM9,7.5H4.5V9H9Zm0,6H4.5V15H9Zm-4.5-3H9V12H4.5Zm15-3H15V9h4.5Zm-4.5,3h4.5V12H15Zm0,3h4.5V15H15Z" fill="#707070" stroke="#707070" stroke-width="0.1" fill-rule="evenodd"/></g></svg>