<svg xmlns="http://www.w3.org/2000/svg" width="12.667" height="18.869" viewBox="0 0 12.667 18.869"><g transform="translate(-3.187 -0.374)"><path d="M11.382,14.772v-.931c0-1.125,1.223-2.188,2.016-2.947A5.612,5.612,0,0,0,15.1,6.707a5.583,5.583,0,1,0-11.167,0,5.748,5.748,0,0,0,1.706,4.187c.788.744,2.016,1.811,2.016,2.947v.931" fill="none" stroke="#707070" stroke-linecap="round" stroke-linejoin="round" stroke-width="1.5"/><path d="M7.875,16.875h2.481" transform="translate(0.405 1.619)" fill="none" stroke="#707070" stroke-linecap="round" stroke-linejoin="round" stroke-width="1.5"/><path d="M7.313,15.188h3.722" transform="translate(0.347 1.445)" fill="none" stroke="#707070" stroke-linecap="round" stroke-linejoin="round" stroke-width="1.5"/><path d="M9,13.962V9" transform="translate(0.52 0.809)" fill="none" stroke="#707070" stroke-linecap="round" stroke-linejoin="round" stroke-width="1.5"/><path d="M10.611,8.438a3.222,3.222,0,0,1-1.473.621,3.222,3.222,0,0,1-1.473-.621" transform="translate(0.383 0.752)" fill="none" stroke="#707070" stroke-linecap="round" stroke-linejoin="round" stroke-width="1.5"/></g></svg>