<svg xmlns="http://www.w3.org/2000/svg" width="29.562" height="25.128" viewBox="0 0 29.562 25.128"><path d="M29.952,12.34l2.311-2.311-2.09-2.09-2.526,2.524a10.383,10.383,0,1,0,2.3,1.877ZM22.347,26.721a7.39,7.39,0,1,1,7.39-7.39A7.4,7.4,0,0,1,22.347,26.721Z" transform="translate(-3.132 -4.55)" fill="#707070"/><path d="M20.737,14.847h2.956v5.912H20.737ZM19.259,4.5h5.912V7.456H19.259ZM4.478,11.89H10.39v2.956H4.478Zm0,11.825H10.39v2.956H4.478ZM3,17.8H8.9v2.956H3Z" transform="translate(-3 -4.5)" fill="#707070"/></svg>