<svg xmlns="http://www.w3.org/2000/svg" width="14" height="11" viewBox="0 0 14 11"><g transform="translate(-1 -2.5)"><path d="M10.954,4.646l-.832-1.314A.9.9,0,0,0,9.438,3H6.563a.9.9,0,0,0-.685.332L5.046,4.646A.9.9,0,0,1,4.375,5H2.5a1,1,0,0,0-1,1v6a1,1,0,0,0,1,1h11a1,1,0,0,0,1-1V6a1,1,0,0,0-1-1H11.656A.955.955,0,0,1,10.954,4.646Z" fill="none" stroke="#707070" stroke-linecap="round" stroke-linejoin="round" stroke-width="1"/><path d="M10.5,8.5A2.5,2.5,0,1,1,8,6a2.5,2.5,0,0,1,2.5,2.5Z" fill="none" stroke="#707070" stroke-miterlimit="10" stroke-width="1"/><path d="M3.875,4.938V4.25h-.75v.688" fill="none" stroke="#707070" stroke-linecap="round" stroke-linejoin="round" stroke-width="1"/></g></svg>