<svg xmlns="http://www.w3.org/2000/svg" width="22.6" height="18.475" viewBox="0 0 22.6 18.475"><path d="M21,11.345V7.125a2.253,2.253,0,0,0-2.25-2.25H5.25A2.253,2.253,0,0,0,3,7.125v4.22A3,3,0,0,0,.75,14.25V19.5A1.5,1.5,0,0,0,2.25,21H3v2.25H4.5V21h15v2.25H21V21h.75a1.5,1.5,0,0,0,1.5-1.5V14.25a3,3,0,0,0-2.25-2.9ZM5.25,19.5h-3V14.25a1.5,1.5,0,0,1,3,0Zm12,0H6.75V15h10.5Zm.095-6H6.655A3.011,3.011,0,0,0,4.5,11.345V7.125a.751.751,0,0,1,.75-.75h13.5a.751.751,0,0,1,.75.75v4.22A3.011,3.011,0,0,0,17.345,13.5Zm4.405,6h-3V14.25a1.5,1.5,0,0,1,3,0V19.5Z" transform="translate(-0.7 -4.825)" fill="#707070" stroke="#707070" stroke-width="0.1"/></svg>