<svg xmlns="http://www.w3.org/2000/svg" width="25.648" height="20.05" viewBox="0 0 25.648 20.05"><path d="M25.394,13.966H22.84V8.024A1.276,1.276,0,0,0,21.562,6.75H2.4A1.276,1.276,0,0,0,1.125,8.024V21.075A1.276,1.276,0,0,0,2.4,22.349H18.157v3.077A1.276,1.276,0,0,0,19.434,26.7H25.4a1.276,1.276,0,0,0,1.278-1.274V15.239A1.276,1.276,0,0,0,25.4,13.965ZM18.156,15.24v5.412H2.828V8.448H21.137v5.518h-1.7A1.276,1.276,0,0,0,18.156,15.24ZM24.968,25H19.859V15.664h5.109Z" transform="translate(-1.075 -6.7)" fill="#707070" stroke="#707070" stroke-width="0.1"/></svg>