<svg xmlns="http://www.w3.org/2000/svg" width="18.397" height="12.265" viewBox="0 0 18.397 12.265"><g transform="translate(-1.123 -6.75)"><path d="M18.406,15.953A2.453,2.453,0,1,1,15.953,13.5,2.453,2.453,0,0,1,18.406,15.953Z" transform="translate(-5.63 -3.071)" fill="#707070"/><path d="M19.323,12.216a12.992,12.992,0,0,0-3.8-3.853A9.628,9.628,0,0,0,10.309,6.75,9.182,9.182,0,0,0,5.546,8.134a13.964,13.964,0,0,0-4.2,4.065,1.223,1.223,0,0,0-.025,1.362,12.806,12.806,0,0,0,3.767,3.858,9.5,9.5,0,0,0,5.225,1.6,9.673,9.673,0,0,0,5.22-1.6,12.808,12.808,0,0,0,3.8-3.868,1.234,1.234,0,0,0,0-1.332Zm-9,4.346A3.679,3.679,0,1,1,14,12.882,3.679,3.679,0,0,1,10.322,16.562Z" transform="translate(0)" fill="#707070"/></g></svg>