<svg xmlns="http://www.w3.org/2000/svg" width="15" height="16.88" viewBox="0 0 15 16.88"><g transform="translate(-3.395 -1.35)"><path d="M12.7,9.79c.195-.32.4-.651.595-.991a3.835,3.835,0,0,0,.363-3.416C12.8,3.111,9.939,1.726,9.276,1.506L8.811,1.35,8.083,2.805l.351.287a1.336,1.336,0,0,1,.42.86,1.968,1.968,0,0,1-.718,1.416c-.346.346-.727.681-1.129,1.036-1.693,1.49-3.612,3.181-3.612,6.379q0,.066,0,.131a5.359,5.359,0,0,0,1.644,3.77A5.458,5.458,0,0,0,8.857,18.23h3.261l-.4-.817c-1.635-3.319-.479-5.218.985-7.623ZM8.857,17.1a4.328,4.328,0,0,1-4.329-4.2q0-.055,0-.11c0-2.686,1.641-4.132,3.228-5.53.4-.35.809-.713,1.181-1.085A3.023,3.023,0,0,0,9.986,3.9a2.3,2.3,0,0,0-.255-.94A6.331,6.331,0,0,1,12.6,5.783a2.718,2.718,0,0,1-.281,2.445c-.193.332-.392.658-.584.973-1.405,2.307-2.738,4.5-1.4,7.9Z" fill="#707070"/><path d="M27.325,19.86q-.014-.056-.03-.113c-.409-1.5-2.672-3.426-2.928-3.64l-.516-.431-.338.581a13.252,13.252,0,0,0-1.719,3.9,7.593,7.593,0,0,0,.676,4.855l.152.33h.385a4.431,4.431,0,0,0,3.515-1.717A4.361,4.361,0,0,0,27.325,19.86Zm-1.7,3.069a3.3,3.3,0,0,1-2.281,1.264c-1.117-2.687-.458-4.518.8-6.766A7.914,7.914,0,0,1,26.2,20.044q.013.045.024.091A3.235,3.235,0,0,1,25.63,22.928Z" transform="translate(-9.063 -7.112)" fill="#707070"/></g></svg>