<svg xmlns="http://www.w3.org/2000/svg" width="14" height="14" viewBox="0 0 14 14"><path d="M7,14a3.5,3.5,0,0,0,3.5-3.5,3.5,3.5,0,0,0,0-7,3.5,3.5,0,0,0-7,0,3.5,3.5,0,0,0,0,7A3.5,3.5,0,0,0,7,14ZM9.625,3.5a2.625,2.625,0,0,0-5.25,0,1,1,0,0,0,.026.216,5.731,5.731,0,0,1,1.4.948,2.631,2.631,0,0,1,2.4,0,5.731,5.731,0,0,1,1.4-.948A1.027,1.027,0,0,0,9.625,3.5ZM8.915,8.8a2.624,2.624,0,0,0,0-3.591,6.2,6.2,0,0,1,.566-.426,2.037,2.037,0,0,1,1.019-.4,2.625,2.625,0,0,1,0,5.25,2.026,2.026,0,0,1-1.019-.4A5.979,5.979,0,0,1,8.915,8.8ZM5.8,9.335a2.626,2.626,0,0,0,2.4,0,5.764,5.764,0,0,0,1.4.949,1.021,1.021,0,0,1,.026.216,2.625,2.625,0,0,1-5.25,0,1,1,0,0,1,.026-.216,5.753,5.753,0,0,0,1.4-.949ZM5.086,5.2a2.624,2.624,0,0,0,0,3.591,5.976,5.976,0,0,1-.566.426,2.037,2.037,0,0,1-1.019.4,2.625,2.625,0,0,1,0-5.25,2.026,2.026,0,0,1,1.019.4,5.99,5.99,0,0,1,.566.426ZM7,7.875A.875.875,0,1,1,7.875,7,.875.875,0,0,1,7,7.875Z" fill="#707070" fill-rule="evenodd"/></svg>