<svg xmlns="http://www.w3.org/2000/svg" width="14.283" height="21.582" viewBox="0 0 14.283 21.582"><g transform="translate(-6.261 -1.45)"><g transform="translate(6.843 2)"><path d="M12.174,5.5a1.116,1.116,0,0,1,1.117,1.117v6.7a1.117,1.117,0,0,1,2.234,0v.372a1.117,1.117,0,1,1,2.234,0v.745a1.117,1.117,0,1,1,2.234,0v4.908a8.383,8.383,0,0,1-.142,1.229,3.373,3.373,0,0,1-3.322,2.8H13.507a3.7,3.7,0,0,1-2.473-1.08.007.007,0,0,1-.007-.007l-1.467-1.3a4.446,4.446,0,0,1-1.177-1.706l-1.5-4.134a.718.718,0,0,1,.372-.894,1.28,1.28,0,0,1,.544-.119,1.3,1.3,0,0,1,1.154.708l1.37,3.128a1.813,1.813,0,0,0,.73-1.452v-9.9" transform="translate(-6.843 -2.893)" fill="none" stroke="#707070" stroke-linecap="round" stroke-linejoin="round" stroke-miterlimit="10" stroke-width="1.1"/><g transform="translate(1.607)"><g transform="translate(1.09 1.091)"><line x1="0.527" y1="0.527" fill="none" stroke="#707070" stroke-linecap="round" stroke-linejoin="round" stroke-miterlimit="10" stroke-width="1.1"/></g><g transform="translate(3.724)"><line y1="0.745" fill="none" stroke="#707070" stroke-linecap="round" stroke-linejoin="round" stroke-miterlimit="10" stroke-width="1.1"/></g><g transform="translate(5.831 1.091)"><line y1="0.527" x2="0.527" fill="none" stroke="#707070" stroke-linecap="round" stroke-linejoin="round" stroke-miterlimit="10" stroke-width="1.1"/></g><g transform="translate(0 3.724)"><line x2="0.745" transform="translate(6.703)" fill="none" stroke="#707070" stroke-linecap="round" stroke-linejoin="round" stroke-miterlimit="10" stroke-width="1.1"/><line x2="0.745" fill="none" stroke="#707070" stroke-linecap="round" stroke-linejoin="round" stroke-miterlimit="10" stroke-width="1.1"/></g></g></g><g transform="translate(6.843 2)"><path d="M12.174,5.5a1.116,1.116,0,0,1,1.117,1.117v6.7a1.117,1.117,0,0,1,2.234,0v.372a1.117,1.117,0,1,1,2.234,0v.745a1.117,1.117,0,1,1,2.234,0v4.908a8.383,8.383,0,0,1-.142,1.229,3.373,3.373,0,0,1-3.322,2.8H13.507a3.7,3.7,0,0,1-2.473-1.08.007.007,0,0,1-.007-.007l-1.467-1.3a4.446,4.446,0,0,1-1.177-1.706l-1.5-4.134a.718.718,0,0,1,.372-.894,1.28,1.28,0,0,1,.544-.119,1.3,1.3,0,0,1,1.154.708l1.37,3.128a1.813,1.813,0,0,0,.73-1.452v-9.9" transform="translate(-6.843 -2.893)" fill="none" stroke="#707070" stroke-linecap="round" stroke-linejoin="round" stroke-miterlimit="10" stroke-width="1.1"/><g transform="translate(1.607)"><g transform="translate(1.09 1.091)"><line x1="0.527" y1="0.527" fill="none" stroke="#707070" stroke-linecap="round" stroke-linejoin="round" stroke-miterlimit="10" stroke-width="1.1"/></g><g transform="translate(3.724)"><line y1="0.745" fill="none" stroke="#707070" stroke-linecap="round" stroke-linejoin="round" stroke-miterlimit="10" stroke-width="1.1"/></g><g transform="translate(5.831 1.091)"><line y1="0.527" x2="0.527" fill="none" stroke="#707070" stroke-linecap="round" stroke-linejoin="round" stroke-miterlimit="10" stroke-width="1.1"/></g><g transform="translate(0 3.724)"><line x2="0.745" transform="translate(6.703)" fill="none" stroke="#707070" stroke-linecap="round" stroke-linejoin="round" stroke-miterlimit="10" stroke-width="1.1"/><line x2="0.745" fill="none" stroke="#707070" stroke-linecap="round" stroke-linejoin="round" stroke-miterlimit="10" stroke-width="1.1"/></g></g></g></g></svg>