<svg xmlns="http://www.w3.org/2000/svg" width="13.5" height="13.5" viewBox="0 0 13.5 13.5"><g transform="translate(-2.25 -2.25)"><path d="M6.75,2.25H3.375A1.125,1.125,0,0,0,2.25,3.375V6.75A1.125,1.125,0,0,0,3.375,7.875H6.75A1.125,1.125,0,0,0,7.875,6.75V3.375A1.125,1.125,0,0,0,6.75,2.25Zm0,4.5H3.375V3.375H6.75Z" fill="#707070"/><path d="M14.625,2.25H11.25a1.125,1.125,0,0,0-1.125,1.125V6.75A1.125,1.125,0,0,0,11.25,7.875h3.375A1.125,1.125,0,0,0,15.75,6.75V3.375A1.125,1.125,0,0,0,14.625,2.25Zm0,4.5H11.25V3.375h3.375Z" fill="#707070"/><path d="M6.75,10.125H3.375A1.125,1.125,0,0,0,2.25,11.25v3.375A1.125,1.125,0,0,0,3.375,15.75H6.75a1.125,1.125,0,0,0,1.125-1.125V11.25A1.125,1.125,0,0,0,6.75,10.125Zm0,4.5H3.375V11.25H6.75Z" fill="#707070"/><path d="M14.625,10.125H11.25a1.125,1.125,0,0,0-1.125,1.125v3.375A1.125,1.125,0,0,0,11.25,15.75h3.375a1.125,1.125,0,0,0,1.125-1.125V11.25A1.125,1.125,0,0,0,14.625,10.125Zm0,4.5H11.25V11.25h3.375Z" fill="#707070"/></g></svg>