<svg xmlns="http://www.w3.org/2000/svg" width="14" height="14" viewBox="0 0 14 14"><g transform="translate(-25 -592)"><g transform="translate(-2698 -18625)"><circle cx="7" cy="7" r="7" transform="translate(2723 19217)" fill="rgba(236,236,236,0.7)"/><g transform="translate(2736.907 19217.35) rotate(90)"><path d="M16.875,2.25h.641V3.839h-.641Z" transform="translate(-10.274 0)"/><path d="M24.4,7.179l1.123-1.123.453.453L24.851,7.632Z" transform="translate(-15.469 -2.722)"/><path d="M28.17,16.875h1.589v.641H28.17Z" transform="translate(-18.167 -10.301)"/><path d="M24.405,24.853l.453-.453,1.123,1.123-.453.453Z" transform="translate(-15.474 -15.523)"/><path d="M16.875,28.17h.641v1.589h-.641Z" transform="translate(-10.274 -18.22)"/><path d="M6.072,25.53,7.2,24.407l.453.453L6.525,25.983Z" transform="translate(-2.734 -15.528)"/><path d="M2.25,16.875H3.839v.641H2.25Z" transform="translate(0 -10.301)"/><path d="M6.064,6.516l.454-.452L7.641,7.187l-.453.453Z" transform="translate(-2.728 -2.728)"/><path d="M13.172,11.891a1.281,1.281,0,1,1-1.281,1.281,1.281,1.281,0,0,1,1.281-1.281m0-.641a1.922,1.922,0,1,0,1.922,1.922A1.922,1.922,0,0,0,13.172,11.25Z" transform="translate(-6.251 -6.277)"/></g></g></g></svg>