<svg xmlns="http://www.w3.org/2000/svg" width="14" height="11.537" viewBox="0 0 14 11.537"><g transform="translate(-3402 -1096)"><g transform="translate(3402 1096.361)"><path d="M0,13.636a.405.405,0,0,1,.405-.405H3.241a.405.405,0,0,1,0,.81H.405A.405.405,0,0,1,0,13.636ZM0,10.4a.405.405,0,0,1,.405-.405H6.481a.405.405,0,0,1,0,.81H.405A.405.405,0,0,1,0,10.4ZM0,7.155A.405.405,0,0,1,.405,6.75H6.481a.405.405,0,0,1,0,.81H.405A.405.405,0,0,1,0,7.155Z" transform="translate(0 -6.75)" fill="#707070" fill-rule="evenodd"/></g><path d="M15,3.5c-.691-1.188-3.817-1.44-4.17-1.473L10.436,2V9.324a2.121,2.121,0,0,0-.3-.2A3,3,0,0,0,7.79,8.975a2.787,2.787,0,0,0-2.114,3.05,1.919,1.919,0,0,0,.958,1.2,2.693,2.693,0,0,0,1.3.317A3.435,3.435,0,0,0,9,13.368a2.928,2.928,0,0,0,2.182-2.65V4.643a10.493,10.493,0,0,1,2.359.515.361.361,0,1,0,.259-.673,11.3,11.3,0,0,0-2.639-.565V2.781c1.2.13,2.881.5,3.212,1.08.72,1.228-.839,2.65-.853,2.665a.36.36,0,0,0,.479.537C14.091,6.987,16.018,5.241,15,3.5Zm-6.24,9.186a2.315,2.315,0,0,1-1.8-.094,1.192,1.192,0,0,1-.609-.745c-.216-.839.522-1.818,1.649-2.182a2.708,2.708,0,0,1,.828-.133,1.988,1.988,0,0,1,.954.223,1.192,1.192,0,0,1,.609.745C10.631,11.34,9.893,12.32,8.762,12.683Z" transform="translate(3400.703 1094)" fill="#707070"/></g></svg>