<svg xmlns="http://www.w3.org/2000/svg" width="30" height="30" viewBox="0 0 30 30"><g transform="translate(3980 10352)"><g transform="translate(-4200 -10994)"><rect width="30" height="30" rx="3" transform="translate(220 642)" fill="#1a8ae5"/><path d="M2.736,6.355a11.619,11.619,0,0,0,5.01,5.4l1.67-1.8a.622.622,0,0,1,.782-.192,7.927,7.927,0,0,0,2.7.459.715.715,0,0,1,.515.23.778.778,0,0,1,.231.575V13.9a.8.8,0,0,1-.231.555.691.691,0,0,1-.516.249,11.987,11.987,0,0,1-6.484-1.857,13.267,13.267,0,0,1-4.69-5.054A14.487,14.487,0,0,1,0,.8.8.8,0,0,1,.231.249.694.694,0,0,1,.746,0H3.412a.674.674,0,0,1,.533.249A.832.832,0,0,1,4.158.8a9.79,9.79,0,0,0,.426,2.91.825.825,0,0,1-.178.842Z" transform="translate(228.896 649.178)" fill="#fff"/></g></g></svg>