<svg xmlns="http://www.w3.org/2000/svg" width="30" height="30" viewBox="0 0 30 30"><g transform="translate(4060 10352)"><g transform="translate(-4200 -10994)"><rect width="30" height="30" rx="3" transform="translate(140 642)" fill="#1a8ae5"/><path d="M10.425,9.407a4.819,4.819,0,0,1,1.032.466,4.615,4.615,0,0,1,.948.561.451.451,0,0,1,.021.159,2.23,2.23,0,0,1-.18.8,1.417,1.417,0,0,1-.751.693,2.517,2.517,0,0,1-1.08.281A5.716,5.716,0,0,1,8.4,11.714a6.04,6.04,0,0,1-1.8-1.249A13.945,13.945,0,0,1,5.038,8.507a3.7,3.7,0,0,1-.751-2.053V6.37A2.339,2.339,0,0,1,5.07,4.7a.8.8,0,0,1,.55-.233,1.722,1.722,0,0,1,.191.016,1.753,1.753,0,0,0,.2.016.431.431,0,0,1,.28.069.779.779,0,0,1,.164.291q.085.212.349.931a6.186,6.186,0,0,1,.265.794,1.073,1.073,0,0,1-.365.608q-.365.386-.365.492a.3.3,0,0,0,.053.159,4.765,4.765,0,0,0,1.08,1.45,6.749,6.749,0,0,0,1.6,1.069.47.47,0,0,0,.233.074q.159,0,.572-.513t.55-.513ZM8.276,15.016a6.466,6.466,0,0,0,2.577-.529,6.546,6.546,0,0,0,3.54-3.54,6.538,6.538,0,0,0,0-5.153,6.726,6.726,0,0,0-1.418-2.123,6.662,6.662,0,0,0-2.122-1.418,6.5,6.5,0,0,0-2.577-.529A6.433,6.433,0,0,0,5.7,2.253,6.744,6.744,0,0,0,3.577,3.671,6.667,6.667,0,0,0,2.159,5.792,6.581,6.581,0,0,0,2.9,12.264L2.064,14.73l2.561-.815A6.508,6.508,0,0,0,8.276,15.016ZM8.276.39a7.757,7.757,0,0,1,3.1.635,7.887,7.887,0,0,1,4.249,4.249,7.865,7.865,0,0,1,0,6.192,7.887,7.887,0,0,1-4.249,4.249,7.75,7.75,0,0,1-3.1.635,7.858,7.858,0,0,1-3.863-.995L0,16.773l1.439-4.286A7.934,7.934,0,0,1,.931,5.274,7.887,7.887,0,0,1,5.18,1.025,7.738,7.738,0,0,1,8.276.39Z" transform="translate(147.178 648.787)" fill="#fff"/></g></g></svg>