<svg xmlns="http://www.w3.org/2000/svg" width="14" height="12.989" viewBox="0 0 14 12.989"><g transform="translate(-3437 -1121)"><g transform="translate(3437 1121)"><path d="M5.6,1.923l-.5-.516A2.629,2.629,0,0,0,.98,2.137a3.3,3.3,0,0,0,.22,3.07,12.972,12.972,0,0,0,4.4,4.45A12.977,12.977,0,0,0,10,5.206a3.3,3.3,0,0,0,.22-3.07A2.63,2.63,0,0,0,6.1,1.407Zm0,8.577C-5.133,3.408,2.3-2.128,5.477.8c.042.039.083.078.123.12Q5.66.858,5.724.8C8.9-2.13,16.334,3.407,5.6,10.5Z" transform="translate(0 0)" fill="#707070" fill-rule="evenodd"/></g><g transform="translate(3439.8 1123.489)"><path d="M5.6,1.923l-.5-.516A2.629,2.629,0,0,0,.98,2.137a3.3,3.3,0,0,0,.22,3.07,12.972,12.972,0,0,0,4.4,4.45A12.977,12.977,0,0,0,10,5.206a3.3,3.3,0,0,0,.22-3.07A2.63,2.63,0,0,0,6.1,1.407Zm0,8.577C-5.133,3.408,2.3-2.128,5.477.8c.042.039.083.078.123.12Q5.66.858,5.724.8C8.9-2.13,16.334,3.407,5.6,10.5Z" transform="translate(0 0)" fill="#707070" fill-rule="evenodd"/></g></g></svg>