<svg xmlns="http://www.w3.org/2000/svg" width="18" height="18" viewBox="0 0 18 18"><g transform="translate(-3 -3)"><path d="M14.25,10.5A2.25,2.25,0,1,0,12,8.25,2.25,2.25,0,0,0,14.25,10.5Zm0-3a.75.75,0,1,1-.75.75A.75.75,0,0,1,14.25,7.5Z" fill="#707070"/><path d="M19.5,3H4.5A1.5,1.5,0,0,0,3,4.5v15A1.5,1.5,0,0,0,4.5,21h15A1.5,1.5,0,0,0,21,19.5V4.5A1.5,1.5,0,0,0,19.5,3Zm0,16.5H4.5V15l3.75-3.75,4.192,4.192a1.5,1.5,0,0,0,2.115,0L15.75,14.25,19.5,18Zm0-3.623-2.692-2.692a1.5,1.5,0,0,0-2.115,0L13.5,14.378,9.308,10.186a1.5,1.5,0,0,0-2.115,0L4.5,12.878V4.5h15Z" fill="#707070"/></g></svg>