<svg xmlns="http://www.w3.org/2000/svg" width="20.323" height="14.053" viewBox="0 0 20.323 14.053"><g transform="translate(11.321 1.683)"><path d="M283.743,140.568h-.312a.407.407,0,1,0,0,.814h.312a.407.407,0,0,0,0-.814Z" transform="translate(-283.024 -140.568)" fill="#707070"/></g><g transform="translate(1.668 1.683)"><path d="M58.927,140.568H57.869a.557.557,0,0,0,0,1.073h.651v8.543H48.307v-8.543h6.51a.557.557,0,0,0,0-1.073H47.9a.485.485,0,0,0-.407.536v9.615a.485.485,0,0,0,.407.536H58.927a.485.485,0,0,0,.407-.536V141.1A.485.485,0,0,0,58.927,140.568Z" transform="translate(-47.493 -140.568)" fill="#707070"/></g><path d="M19.082,92.67H1.241A1.3,1.3,0,0,0,0,94.015v11.362a1.3,1.3,0,0,0,1.241,1.345h17.84a1.3,1.3,0,0,0,1.241-1.345V94.015A1.3,1.3,0,0,0,19.082,92.67ZM16.231,103v2.724H1.241a.337.337,0,0,1-.322-.349V94.015a.337.337,0,0,1,.322-.349H16.231Zm3.173,2.375a.337.337,0,0,1-.322.349H17.15V103.5H19.4v1.877Zm0-2.874H17.151V93.667h1.931a.337.337,0,0,1,.322.349V102.5Z" transform="translate(0 -92.67)" fill="#707070"/><g transform="translate(18.105 2.602)"><path d="M449.276,151.944a.407.407,0,0,0-.407.407v.326a.407.407,0,1,0,.814,0v-.326A.407.407,0,0,0,449.276,151.944Z" transform="translate(-448.869 -151.944)" fill="#707070"/></g><g transform="translate(18.105 4.813)"><path d="M449.276,202.333a.407.407,0,0,0-.407.407v.326a.407.407,0,0,0,.814,0v-.326A.407.407,0,0,0,449.276,202.333Z" transform="translate(-448.869 -202.333)" fill="#707070"/></g><g transform="translate(18.105 7.025)"><path d="M449.276,252.722a.407.407,0,0,0-.407.407v.326a.407.407,0,1,0,.814,0v-.326A.407.407,0,0,0,449.276,252.722Z" transform="translate(-448.869 -252.722)" fill="#707070"/></g></svg>