<svg xmlns="http://www.w3.org/2000/svg" width="21.769" height="14.211" viewBox="0 0 21.769 14.211"><path d="M19.829,92.327a1.929,1.929,0,0,0-.759.155v-1.74a1.86,1.86,0,0,0-1.858-1.858H4.557A1.86,1.86,0,0,0,2.7,90.742v1.74A1.94,1.94,0,0,0,0,94.268V102.5a.59.59,0,0,0,.59.59h2.7a.59.59,0,0,0,.59-.59V100.4H17.889V102.5a.59.59,0,0,0,.59.59h2.7a.59.59,0,0,0,.59-.59V94.268A1.943,1.943,0,0,0,19.829,92.327ZM3.881,94.268V90.742a.677.677,0,0,1,.677-.677H17.211a.678.678,0,0,1,.677.677v5.029H11.475V93.077a.59.59,0,0,0-1.181,0v2.694H3.881Zm-2.7,0a.759.759,0,1,1,1.519,0v1.5H1.181ZM2.7,101.914H1.181V100.4H2.7Zm17.889,0H19.07V100.4h1.519Zm0-2.7H1.181V96.952H20.588v2.263Zm0-3.444H19.07v-1.5a.759.759,0,1,1,1.519,0Z" transform="translate(0 -88.884)" fill="#707070"/><g transform="translate(10.294 1.584)"><path d="M242.7,126.132a.59.59,0,0,0-.59.59V127a.59.59,0,1,0,1.181,0v-.276A.59.59,0,0,0,242.7,126.132Z" transform="translate(-242.112 -126.132)" fill="#707070"/></g><path d="M19.829,92.327a1.929,1.929,0,0,0-.759.155v-1.74a1.86,1.86,0,0,0-1.858-1.858H4.557A1.86,1.86,0,0,0,2.7,90.742v1.74A1.94,1.94,0,0,0,0,94.268V102.5a.59.59,0,0,0,.59.59h2.7a.59.59,0,0,0,.59-.59V100.4H17.889V102.5a.59.59,0,0,0,.59.59h2.7a.59.59,0,0,0,.59-.59V94.268A1.943,1.943,0,0,0,19.829,92.327ZM3.881,94.268V90.742a.677.677,0,0,1,.677-.677H17.211a.678.678,0,0,1,.677.677v5.029H11.475V93.077a.59.59,0,0,0-1.181,0v2.694H3.881Zm-2.7,0a.759.759,0,1,1,1.519,0v1.5H1.181ZM2.7,101.914H1.181V100.4H2.7Zm17.889,0H19.07V100.4h1.519Zm0-2.7H1.181V96.952H20.588v2.263Zm0-3.444H19.07v-1.5a.759.759,0,1,1,1.519,0Z" transform="translate(0 -88.884)" fill="#707070"/></svg>