<svg xmlns="http://www.w3.org/2000/svg" width="15.322" height="19.5" viewBox="0 0 15.322 19.5"><g transform="translate(-3.75 -1.5)"><path d="M11.732,12.964a3.482,3.482,0,1,1,3.482-3.482,3.482,3.482,0,0,1-3.482,3.482Zm0-5.571a2.089,2.089,0,1,0,2.089,2.089A2.089,2.089,0,0,0,11.732,7.393Z" transform="translate(-0.321 -0.321)" fill="#707070"/><path d="M11.411,21,5.536,14.071q-.122-.156-.242-.314a7.584,7.584,0,0,1-1.543-4.6,7.661,7.661,0,0,1,15.321,0,7.58,7.58,0,0,1-1.542,4.595v0s-.209.274-.241.311ZM6.4,12.918s.163.214.2.26l4.806,5.669,4.813-5.676c.031-.038.194-.254.194-.254a6.2,6.2,0,0,0,1.261-3.755,6.268,6.268,0,1,0-12.536,0,6.2,6.2,0,0,0,1.263,3.757Z" transform="translate(0 0)" fill="#707070"/></g></svg>