<svg xmlns="http://www.w3.org/2000/svg" width="14.666" height="21.092" viewBox="0 0 14.666 21.092"><g transform="translate(-4.667 -1.574)"><path d="M12.06,13.727a1.607,1.607,0,0,0-.727,3.033v1.907h1.333V16.82a1.607,1.607,0,0,0-.607-3.093Z" fill="#707070"/><path d="M17.333,10V7.147A5.467,5.467,0,0,0,12,1.574,5.467,5.467,0,0,0,6.667,7.147V10h-2V21.333A1.333,1.333,0,0,0,6,22.666H18a1.333,1.333,0,0,0,1.333-1.333V10ZM8,7.147a4.133,4.133,0,0,1,4-4.24,4.133,4.133,0,0,1,4,4.24V10H8ZM6,21.333v-10H18v10Z" fill="#707070"/></g></svg>