<svg xmlns="http://www.w3.org/2000/svg" width="16.233" height="18.904" viewBox="0 0 16.233 18.904"><g transform="translate(-4.4 -2.15)"><path d="M22.853,20.955H14.836A1.336,1.336,0,0,1,13.5,19.619v-2h1.336v2h8.016V3.586H14.836v2H13.5v-2A1.336,1.336,0,0,1,14.836,2.25h8.016a1.336,1.336,0,0,1,1.336,1.336V19.619A1.336,1.336,0,0,1,22.853,20.955Z" transform="translate(-3.656 0)" fill="#707070" stroke="#707070" stroke-width="0.2"/><path d="M11.575,18.325l2.391-2.4H4.5V14.59h9.466l-2.391-2.4.942-.942,4.008,4.008-4.008,4.008Z" transform="translate(0 -3.656)" fill="#707070" stroke="#707070" stroke-width="0.2"/></g></svg>