<svg xmlns="http://www.w3.org/2000/svg" width="13.29" height="13.334" viewBox="0 0 13.29 13.334"><path d="M0,6.667a6.483,6.483,0,0,1,.528-2.58A6.709,6.709,0,0,1,1.951,1.96,6.757,6.757,0,0,1,4.082.533,6.468,6.468,0,0,1,6.667,0H7.741a.26.26,0,0,1,.22.264l.044.828A4.393,4.393,0,0,0,9.292,4.14a4.287,4.287,0,0,0,2.994,1.33l.775.062q.229,0,.229.22v.916a6.511,6.511,0,0,1-.877,3.342A6.571,6.571,0,0,1,10,12.441a6.474,6.474,0,0,1-3.333.893,6.722,6.722,0,0,1-4.734-1.951A6.733,6.733,0,0,1,.523,9.257,6.535,6.535,0,0,1,0,6.667Zm1.717,0a5,5,0,0,0,1.545,3.619A5.325,5.325,0,0,0,4.848,11.3a4.678,4.678,0,0,0,1.819.375,4.553,4.553,0,0,0,1.651-.322,5.744,5.744,0,0,0,1.546-.9,5.178,5.178,0,0,0,1.229-1.475,5.434,5.434,0,0,0,.665-1.964A6.735,6.735,0,0,1,8.072,5.051a5.94,5.94,0,0,1-1.6-3.509,4.705,4.705,0,0,0-2.435.819,5.209,5.209,0,0,0-1.713,1.9A5.081,5.081,0,0,0,1.717,6.667Z" fill="#707070"/></svg>