<svg xmlns="http://www.w3.org/2000/svg" width="20.751" height="20.751" viewBox="0 0 20.751 20.751"><path d="M11.51,0V11.51H9.241V0Zm5.566,2.486a9.934,9.934,0,0,1,3.675,7.89,10.005,10.005,0,0,1-3.026,7.349,10.006,10.006,0,0,1-7.349,3.026,10.006,10.006,0,0,1-7.349-3.026A10.006,10.006,0,0,1,0,10.375a9.934,9.934,0,0,1,3.675-7.89L5.3,4.107a7.731,7.731,0,0,0-2.972,6.268,7.763,7.763,0,0,0,2.351,5.7,7.763,7.763,0,0,0,5.7,2.351,7.765,7.765,0,0,0,5.7-2.351,7.76,7.76,0,0,0,2.351-5.7,7.58,7.58,0,0,0-2.972-6.214Z" fill="#707070"/></svg>