<svg xmlns="http://www.w3.org/2000/svg" width="31.502" height="31.5" viewBox="0 0 31.502 31.5"><g transform="translate(-2.248 -2.25)"><path d="M19.125,33.75a1.125,1.125,0,0,1-1.006-1.628l2.25-4.5a1.125,1.125,0,1,1,2.011,1.006l-2.25,4.5a1.123,1.123,0,0,1-1,.622Z" fill="#707070"/><path d="M9,33.75a1.125,1.125,0,0,1-1.006-1.628l2.25-4.5a1.125,1.125,0,1,1,2.011,1.006L10,33.128a1.123,1.123,0,0,1-1,.622Z" fill="#707070"/><path d="M33.75,17.438a7.348,7.348,0,0,0-5.85-7.159,10.118,10.118,0,0,0-19.8,0,7.3,7.3,0,0,0-1.684,13.75l-1.8,3.594A1.125,1.125,0,1,0,6.63,28.629L8.569,24.75H16.18l-1.435,2.872a1.125,1.125,0,1,0,2.011,1.006L18.7,24.75h7.61l-1.435,2.872a1.125,1.125,0,1,0,2.011,1.006l2.188-4.376A7.319,7.319,0,0,0,33.75,17.438ZM26.438,22.5H9.563a5.059,5.059,0,0,1-.4-10.1l.918-.072.111-.914a7.868,7.868,0,0,1,15.618,0l.111.914.917.072a5.059,5.059,0,0,1-.4,10.1Z" fill="#707070"/></g></svg>