<svg xmlns="http://www.w3.org/2000/svg" width="24.465" height="25.127" viewBox="0 0 24.465 25.127"><path d="M24.842,15.542V14.165l1.728-1.512a1.8,1.8,0,0,0,.342-2.3l-2.124-3.6a1.814,1.814,0,0,0-2.133-.81l-2.187.738a10.214,10.214,0,0,0-1.179-.675l-.459-2.268a1.8,1.8,0,0,0-1.8-1.449H12.818a1.8,1.8,0,0,0-1.8,1.449l-.459,2.268a10.331,10.331,0,0,0-1.188.675L7.229,5.912a1.8,1.8,0,0,0-.575-.054,1.8,1.8,0,0,0-1.557.9l-2.124,3.6a1.8,1.8,0,0,0,.369,2.259l1.7,1.557v1.377l-1.7,1.512a1.8,1.8,0,0,0-.369,2.3l2.124,3.6a1.814,1.814,0,0,0,2.133.81l2.187-.738A10.214,10.214,0,0,0,10.6,23.7l.459,2.268a1.8,1.8,0,0,0,1.8,1.449H17.1a1.8,1.8,0,0,0,1.8-1.449l.459-2.268a10.332,10.332,0,0,0,1.188-.675l2.178.738a1.814,1.814,0,0,0,2.133-.81l2.052-3.6a1.8,1.8,0,0,0-.369-2.259Zm-1.611,6.516-3.087-1.044A7.973,7.973,0,0,1,17.7,22.427l-.638,3.231H12.818l-.639-3.2a8.423,8.423,0,0,1-2.43-1.413l-3.1,1.008-2.124-3.6L6.978,16.3a8.01,8.01,0,0,1,0-2.817L4.53,11.258l2.124-3.6L9.741,8.7A7.973,7.973,0,0,1,12.18,7.29l.638-3.231h4.248l.639,3.2a8.424,8.424,0,0,1,2.43,1.413l3.1-1.008,2.124,3.6-2.448,2.16a8.01,8.01,0,0,1,0,2.817l2.448,2.223Z" transform="translate(-2.715 -2.295)" fill="#707070"/><path d="M16.65,22.049a5.346,5.346,0,1,1,3.834-1.566A5.4,5.4,0,0,1,16.65,22.049Zm0-9a3.519,3.519,0,1,0,2.57,1.03A3.519,3.519,0,0,0,16.65,13.05Z" transform="translate(-4.422 -4.086)" fill="#707070"/></svg>