<svg xmlns="http://www.w3.org/2000/svg" width="24.444" height="20" viewBox="0 0 24.444 20"><path d="M25.444,17.444a1.111,1.111,0,0,1-1.111,1.111H2.111a1.111,1.111,0,1,1,0-2.222H24.333A1.111,1.111,0,0,1,25.444,17.444ZM19.889,23a1.111,1.111,0,1,0,0-2.222H6.556a1.111,1.111,0,1,0,0,2.222ZM7.667,13a1.111,1.111,0,0,0,2.222,0,3.333,3.333,0,1,1,6.667,0,1.111,1.111,0,0,0,2.222,0A5.556,5.556,0,1,0,7.667,13Zm4.444-7.778a1.111,1.111,0,1,0,2.222,0V4.111a1.111,1.111,0,1,0-2.222,0ZM19.889,13A1.111,1.111,0,0,0,21,14.111h1.111a1.111,1.111,0,1,0,0-2.222H21A1.111,1.111,0,0,0,19.889,13ZM4.333,11.889a1.111,1.111,0,1,0,0,2.222H5.444a1.111,1.111,0,1,0,0-2.222Zm1.818-5.96a1.111,1.111,0,0,0,0,1.571l.786.786A1.111,1.111,0,1,0,8.508,6.714l-.786-.785A1.111,1.111,0,0,0,6.151,5.929Zm12.571,0-.786.786a1.111,1.111,0,1,0,1.571,1.571l.785-.786a1.111,1.111,0,1,0-1.571-1.571Z" transform="translate(-1 -3)" fill="#707070"/></svg>