<svg xmlns="http://www.w3.org/2000/svg" width="21.538" height="25.128" viewBox="0 0 21.538 25.128"><path d="M14.359.395V2.807H7.179V.395h7.179ZM9.591,15.987V8.808h2.356v7.179H9.591Zm9.591-7.909a10.326,10.326,0,0,1,2.356,6.675A10.385,10.385,0,0,1,18.4,22.381a10.385,10.385,0,0,1-7.628,3.141,10.385,10.385,0,0,1-7.628-3.141A10.352,10.352,0,0,1,0,14.782,10.446,10.446,0,0,1,3.141,7.154a10.338,10.338,0,0,1,7.628-3.169A10.4,10.4,0,0,1,17.5,6.4l1.682-1.738A11.912,11.912,0,0,1,20.865,6.34ZM10.769,23.166A8.011,8.011,0,0,0,16.686,20.7a8.151,8.151,0,0,0,2.44-5.945,8.059,8.059,0,0,0-2.44-5.917A8.054,8.054,0,0,0,10.769,6.4a8.061,8.061,0,0,0-5.917,2.44,8.056,8.056,0,0,0-2.44,5.917A8.148,8.148,0,0,0,4.852,20.7,8.018,8.018,0,0,0,10.769,23.166Z" transform="translate(0 -0.395)" fill="#707070"/></svg>