<svg xmlns="http://www.w3.org/2000/svg" width="25.186" height="25.127" viewBox="0 0 25.186 25.127"><path d="M17.9,7.475a7.274,7.274,0,0,1,2.212,5.338A7.274,7.274,0,0,1,17.9,18.152a7.274,7.274,0,0,1-5.338,2.212,7.13,7.13,0,0,1-5.309-2.242l5.309-5.309V5.263A7.274,7.274,0,0,1,17.9,7.475ZM12.593.25A12.134,12.134,0,0,1,21.5,3.936a12.1,12.1,0,0,1,3.686,8.877A12.1,12.1,0,0,1,21.5,21.691a12.134,12.134,0,0,1-8.906,3.686,12.134,12.134,0,0,1-8.906-3.686A12.1,12.1,0,0,1,0,12.814,12.1,12.1,0,0,1,3.686,3.936,12.137,12.137,0,0,1,12.593.25Zm0,22.65A9.688,9.688,0,0,0,19.7,19.95a9.722,9.722,0,0,0,2.949-7.137A9.722,9.722,0,0,0,19.7,5.677a9.688,9.688,0,0,0-7.108-2.949A9.688,9.688,0,0,0,5.486,5.677a9.721,9.721,0,0,0-2.949,7.137A9.721,9.721,0,0,0,5.486,19.95,9.688,9.688,0,0,0,12.593,22.9Z" transform="translate(0 -0.25)" fill="#707070"/></svg>