<svg xmlns="http://www.w3.org/2000/svg" width="14" height="18.666" viewBox="0 0 14 18.666"><g transform="translate(-4.498)"><path d="M11.5,0a.583.583,0,0,1,.485.26l3.5,5.25A.583.583,0,0,1,15,6.417h-.115l2.359,3.774a.583.583,0,0,1-.495.892h-.223l1.911,3.822a.583.583,0,0,1-.522.845H5.081a.583.583,0,0,1-.522-.845l1.911-3.822H6.249a.583.583,0,0,1-.495-.892L8.113,6.417H8a.583.583,0,0,1-.485-.906l3.5-5.25A.583.583,0,0,1,11.5,0ZM9.088,5.25h.077a.583.583,0,0,1,.495.892L7.3,9.917h.114a.583.583,0,0,1,.522.845l-1.91,3.822H16.973l-1.911-3.822a.583.583,0,0,1,.52-.845H15.7L13.337,6.142a.583.583,0,0,1,.495-.892h.077L11.5,1.634Z" fill="#707070" fill-rule="evenodd"/><path d="M15.75,29.25h2.333v3.5H15.75Z" transform="translate(-5.418 -14.084)" fill="#707070"/></g></svg>