<svg xmlns="http://www.w3.org/2000/svg" width="14.252" height="19.834" viewBox="0 0 14.252 19.834"><g transform="translate(0.15 0.15)"><path d="M15.008,3.645A3.488,3.488,0,1,1,11.52,7.133a3.488,3.488,0,0,1,3.488-3.488m0-1.4a4.883,4.883,0,1,0,4.883,4.883A4.883,4.883,0,0,0,15.008,2.25Z" transform="translate(-8.032 -2.25)" fill="#707070" stroke="#707070" stroke-width="0.3"/><path d="M20.7,28.622h-1.4V25.133a3.488,3.488,0,0,0-3.488-3.488H11.633a3.488,3.488,0,0,0-3.488,3.488v3.488H6.75V25.133a4.883,4.883,0,0,1,4.883-4.883h4.186A4.883,4.883,0,0,1,20.7,25.133Z" transform="translate(-6.75 -9.088)" fill="#707070" stroke="#707070" stroke-width="0.3"/></g></svg>