<svg xmlns="http://www.w3.org/2000/svg" width="22.594" height="15.439" viewBox="0 0 22.594 15.439"><g transform="translate(-0.703 -4.5)"><path d="M23.078,9.172a.728.728,0,0,0-.072-1.1A18.755,18.755,0,0,0,1,8.069a.728.728,0,0,0-.072,1.1.777.777,0,0,0,1,.075,17.254,17.254,0,0,1,20.15,0,.776.776,0,0,0,1-.074Z" fill="#707070"/><path d="M19.843,12.407a.721.721,0,0,0-.095-1.117,14.257,14.257,0,0,0-15.5,0,.72.72,0,0,0-.1,1.117.788.788,0,0,0,.978.1,12.762,12.762,0,0,1,13.731,0,.786.786,0,0,0,.978-.1Zm-3.274,3.274a.7.7,0,0,0-.15-1.125,9.774,9.774,0,0,0-8.838,0,.7.7,0,0,0-.15,1.125l.022.022a.8.8,0,0,0,.916.135,8.274,8.274,0,0,1,7.261,0,.8.8,0,0,0,.916-.137l.022-.022ZM13.59,18.66a.623.623,0,0,0-.06-.99,3,3,0,0,0-3.06,0,.623.623,0,0,0-.06.99l1.059,1.059a.75.75,0,0,0,1.062,0l1.06-1.06Z" fill="#707070"/></g></svg>