<svg xmlns="http://www.w3.org/2000/svg" width="13.454" height="13" viewBox="0 0 13.454 13"><g transform="translate(-1.412 -1.447)"><path d="M19.263,2.171a2.507,2.507,0,0,0-3.2-.273,6.974,6.974,0,0,1,3.557,3.318,2.485,2.485,0,0,0-.36-3.045Z" transform="translate(-5.12 0)" fill="#fff"/><path d="M5.446,2A2.477,2.477,0,0,0,1.968,5.487,6.974,6.974,0,0,1,5.447,1.995Z" transform="translate(0 -0.002)" fill="#fff"/><path d="M8.746,2.667A6.072,6.072,0,0,0,4.456,13.025L3.35,14.131a.437.437,0,0,0,.625.612l1.154-1.154a6.029,6.029,0,0,0,7.321-.034l1.189,1.189a.434.434,0,0,0,.612-.612l-1.167-1.15A6.072,6.072,0,0,0,8.746,2.667Zm3.24,7.56a.434.434,0,0,1-.577.2l-3.1-1.5V5.135a.434.434,0,0,1,.867,0V8.388l2.6,1.262a.434.434,0,0,1,.213.577Z" transform="translate(-0.445 -0.426)" fill="#fff"/></g></svg>