<svg xmlns="http://www.w3.org/2000/svg" width="12.063" height="11.656" viewBox="0 0 12.063 11.656"><g transform="translate(-0.823 -0.844)"><path d="M12.238,1.493a2.248,2.248,0,0,0-2.866-.245,6.253,6.253,0,0,1,3.189,2.975A2.228,2.228,0,0,0,12.238,1.493Z" fill="#707070"/><path d="M4.441,1.334a2.221,2.221,0,0,0-3.119,3.13A6.253,6.253,0,0,1,4.441,1.333Z" fill="#707070"/><path d="M7,1.556a5.444,5.444,0,0,0-3.846,9.287l-.992.992a.391.391,0,0,0,.56.547l1.034-1.034a5.406,5.406,0,0,0,6.564-.031l1.066,1.066a.389.389,0,0,0,.548-.548L10.889,10.8A5.444,5.444,0,0,0,7,1.556ZM9.9,8.334a.389.389,0,0,1-.517.183L6.611,7.171v-3.4a.389.389,0,0,1,.778,0V6.685L9.722,7.817a.389.389,0,0,1,.191.517Z" fill="#707070"/></g></svg>