<svg xmlns="http://www.w3.org/2000/svg" width="21.79" height="21.79" viewBox="0 0 21.79 21.79"><path d="M21.109,12.257H.681a.652.652,0,0,1-.478-.2.659.659,0,0,1-.2-.478A.65.65,0,0,1,.2,11.1a.656.656,0,0,1,.478-.2H17.7V3.4a1.97,1.97,0,0,0-.6-1.447,2.056,2.056,0,0,0-2.894,0,1.97,1.97,0,0,0-.6,1.447v.681l1.362,1.362H10.9l1.362-1.362V3.4a3.276,3.276,0,0,1,1-2.4,3.389,3.389,0,0,1,4.808,0,3.28,3.28,0,0,1,1,2.4V10.9h2.043a.652.652,0,0,1,.478.2.659.659,0,0,1,.2.478.65.65,0,0,1-.2.478A.656.656,0,0,1,21.109,12.257Zm-.681,4.086a3.152,3.152,0,0,1-1.234,2.383,6.927,6.927,0,0,1-2.852,1.511v.873a.652.652,0,0,1-.2.478.659.659,0,0,1-.478.2.65.65,0,0,1-.478-.2.656.656,0,0,1-.2-.478v-.681H6.809v.681a.652.652,0,0,1-.2.478.659.659,0,0,1-.478.2.65.65,0,0,1-.478-.2.656.656,0,0,1-.2-.478v-.873A6.934,6.934,0,0,1,2.6,18.726a3.148,3.148,0,0,1-1.234-2.383V13.619H20.428Z" fill="#707070"/></svg>