<svg xmlns="http://www.w3.org/2000/svg" width="15.647" height="15.647" viewBox="0 0 15.647 15.647"><path d="M14.53,9.5v1.676a3.256,3.256,0,0,1-1.117,2.5v1.694a.269.269,0,0,1-.279.279h-.559a.269.269,0,0,1-.279-.279V14.337a3.368,3.368,0,0,1-1.117.192H4.471a3.366,3.366,0,0,1-1.117-.192V15.3a.378.378,0,0,1-.083.249.249.249,0,0,1-.2.1H2.514a.248.248,0,0,1-.2-.1.376.376,0,0,1-.083-.249V13.673a3.255,3.255,0,0,1-1.117-2.5V9.5H14.53Zm1.117-1.4v.559a.269.269,0,0,1-.279.279H.279A.269.269,0,0,1,0,8.662V8.1a.269.269,0,0,1,.279-.279h.838V2.235A2.154,2.154,0,0,1,1.773.655,2.153,2.153,0,0,1,3.353,0,2.159,2.159,0,0,1,4.959.681a1.631,1.631,0,0,1,.856-.1,1.657,1.657,0,0,1,.812.34L6.819.725a.12.12,0,0,1,.192,0l.367.367a.12.12,0,0,1,0,.192L4.636,4.025a.12.12,0,0,1-.192,0l-.367-.367a.12.12,0,0,1,0-.192,7.554,7.554,0,0,1,.044-2.043,1.118,1.118,0,0,0-1.559.022,1.077,1.077,0,0,0-.327.79V7.824H15.368a.269.269,0,0,1,.279.279Z" fill="#707070"/></svg>