<svg xmlns="http://www.w3.org/2000/svg" width="19.021" height="12.655" viewBox="0 0 19.021 12.655"><path d="M1.8,13.721H3.7V12.642a.983.983,0,0,1,1.1-1.08H7.6a.983.983,0,0,1,1.1,1.08v1.079h1.7V12.642a1,1,0,0,1,1.143-1.08h2.624a1,1,0,0,1,1.143,1.08v1.079h1.907V11.57a1.876,1.876,0,0,0-2.1-2.1H3.892a1.88,1.88,0,0,0-2.1,2.1ZM0,21.491a.6.6,0,0,0,.646.63h.441a.594.594,0,0,0,.638-.63V20.372a2.906,2.906,0,0,0,.52.039H16.783a2.808,2.808,0,0,0,.512-.039v1.119a.594.594,0,0,0,.638.63h.449a.594.594,0,0,0,.638-.63V17.007A2,2,0,0,0,16.783,14.8H2.238A2,2,0,0,0,0,17.007Z" transform="translate(0 -9.466)" fill="#707070"/></svg>