<svg xmlns="http://www.w3.org/2000/svg" width="14.001" height="8.751" viewBox="0 0 14.001 8.751"><path d="M1.75,5.25H13.563A.444.444,0,0,1,14,5.688V8.751h-1.75V7H1.75v1.75H0V.438A.421.421,0,0,1,.13.13.421.421,0,0,1,.438,0h.875a.421.421,0,0,1,.308.13.421.421,0,0,1,.13.308V5.251ZM5.688,3.062a1.684,1.684,0,0,0-.513-1.237,1.691,1.691,0,0,0-1.237-.513A1.681,1.681,0,0,0,2.7,1.825a1.688,1.688,0,0,0-.513,1.237A1.688,1.688,0,0,0,2.7,4.3a1.681,1.681,0,0,0,1.237.513A1.691,1.691,0,0,0,5.175,4.3a1.684,1.684,0,0,0,.513-1.237ZM14,4.812V4.374a2.529,2.529,0,0,0-.769-1.856,2.527,2.527,0,0,0-1.857-.768H6.563a.444.444,0,0,0-.438.438V4.813H14Z" fill="#707070"/></svg>