<svg xmlns="http://www.w3.org/2000/svg" width="24" height="15" viewBox="0 0 24 15"><path d="M3,9H23.25a.718.718,0,0,1,.527.223A.726.726,0,0,1,24,9.75V15H21V12H3v3H0V.75A.718.718,0,0,1,.223.223.726.726,0,0,1,.75,0h1.5a.718.718,0,0,1,.527.223A.726.726,0,0,1,3,.75ZM9.75,5.25a2.89,2.89,0,0,0-.879-2.121A2.89,2.89,0,0,0,6.75,2.25a2.89,2.89,0,0,0-2.121.879A2.89,2.89,0,0,0,3.75,5.25a2.89,2.89,0,0,0,.879,2.121A2.89,2.89,0,0,0,6.75,8.25a2.89,2.89,0,0,0,2.121-.879A2.89,2.89,0,0,0,9.75,5.25ZM24,8.25V7.5a4.338,4.338,0,0,0-1.318-3.182A4.331,4.331,0,0,0,19.5,3H11.25a.718.718,0,0,0-.527.223.726.726,0,0,0-.223.527v4.5Z" fill="#707070"/></svg>