<svg xmlns="http://www.w3.org/2000/svg" width="18.816" height="17.355" viewBox="0 0 18.816 17.355"><path d="M18.97,3.955a1.6,1.6,0,0,1,.2,1.457L16.066,15.649a2.332,2.332,0,0,1-.865,1.214,2.26,2.26,0,0,1-1.384.492H3.389a2.764,2.764,0,0,1-1.678-.6A3.179,3.179,0,0,1,.587,15.265,2.046,2.046,0,0,1,.565,13.83q0-.046.034-.305t.046-.418a.634.634,0,0,0-.034-.243.565.565,0,0,1-.034-.22.694.694,0,0,1,.09-.237,2.922,2.922,0,0,1,.186-.266,3,3,0,0,0,.186-.265,7.653,7.653,0,0,0,.509-1.034,6.092,6.092,0,0,0,.339-1.034.893.893,0,0,0,.006-.339,1,1,0,0,1-.006-.316.932.932,0,0,1,.192-.316,1.8,1.8,0,0,0,.192-.26,6.892,6.892,0,0,0,.474-1.04,4.651,4.651,0,0,0,.283-1.017A1.654,1.654,0,0,0,3,6.158q-.039-.26.006-.316A.914.914,0,0,1,3.255,5.5q.2-.2.248-.254a4.648,4.648,0,0,0,.48-.955,4.276,4.276,0,0,0,.31-1.09.946.946,0,0,0-.034-.288.742.742,0,0,1-.022-.3.639.639,0,0,1,.1-.2q.079-.113.2-.26t.192-.237a2.549,2.549,0,0,0,.186-.345q.1-.209.169-.4T5.27.763A1.92,1.92,0,0,1,5.491.4a1.323,1.323,0,0,1,.3-.266A.751.751,0,0,1,6.2.006a2.352,2.352,0,0,1,.537.062L6.723.1A3.158,3.158,0,0,1,7.3,0h8.6a1.488,1.488,0,0,1,1.288.632,1.613,1.613,0,0,1,.2,1.469l-3.1,10.237a4.407,4.407,0,0,1-.808,1.734,2.085,2.085,0,0,1-1.452.39H2.214a.5.5,0,0,0-.43.169.513.513,0,0,0-.011.485q.271.791,1.627.791H13.829a1.255,1.255,0,0,0,.632-.175.809.809,0,0,0,.4-.469L18.246,4.113a1.829,1.829,0,0,0,.057-.644,1.492,1.492,0,0,1,.667.485ZM6.948,3.977a.293.293,0,0,0,.022.254.247.247,0,0,0,.226.107h6.87a.474.474,0,0,0,.288-.107.5.5,0,0,0,.187-.254l.237-.723A.293.293,0,0,0,14.756,3a.247.247,0,0,0-.226-.107H7.66A.474.474,0,0,0,7.372,3a.5.5,0,0,0-.186.254ZM6.01,6.87a.293.293,0,0,0,.022.254.247.247,0,0,0,.226.107h6.87a.474.474,0,0,0,.288-.107A.51.51,0,0,0,13.6,6.87l.237-.723a.293.293,0,0,0-.022-.254.247.247,0,0,0-.226-.107H6.723a.474.474,0,0,0-.288.107.5.5,0,0,0-.187.254Z" transform="translate(-0.446)" fill="#707070"/></svg>