<svg xmlns="http://www.w3.org/2000/svg" width="9.407" height="14.111" viewBox="0 0 9.407 14.111"><g transform="translate(-6.75 -1.125)"><path d="M16.977,32.625H15.1a.47.47,0,0,0,0,.941h1.881a.47.47,0,1,0,0-.941Z" transform="translate(-4.582 -18.33)" fill="#707070"/><path d="M16.793,29.25H13.97a.47.47,0,1,0,0,.941h2.822a.47.47,0,1,0,0-.941Z" transform="translate(-3.928 -16.366)" fill="#707070"/><path d="M14.788,2.5A4.707,4.707,0,0,0,6.75,5.829,4.828,4.828,0,0,0,8.19,9.346l.128.12c.529.5,1.253,1.173,1.253,1.772v.706a.47.47,0,0,0,.47.47h.706a.235.235,0,0,0,.235-.235V8.734a.235.235,0,0,0-.151-.22,3.843,3.843,0,0,1-.769-.422.47.47,0,1,1,.546-.764,2.12,2.12,0,0,0,.844.382,2.132,2.132,0,0,0,.845-.382.47.47,0,0,1,.546.764,3.843,3.843,0,0,1-.769.421.235.235,0,0,0-.151.22v3.446a.235.235,0,0,0,.235.235h.706a.47.47,0,0,0,.47-.47v-.706c0-.585.716-1.262,1.239-1.757l.144-.137a4.731,4.731,0,0,0,1.438-3.515A4.679,4.679,0,0,0,14.788,2.5Z" transform="translate(0)" fill="#707070"/></g></svg>