<svg xmlns="http://www.w3.org/2000/svg" width="12.265" height="14.003" viewBox="0 0 12.265 14.003"><path d="M12.264,10.514a.688.688,0,0,1-.014.137v.014l-.014.014a1.363,1.363,0,0,1-.041.15v.014q-.027.055-.068.123l-.014.027a.876.876,0,0,0-.082.1l-.041.041-.055.055a.781.781,0,0,0-.1.055l-.007.007-.007.007h-.014a.984.984,0,0,1-.314.109q-.1.014-.109.014h-3.5v1.75A.888.888,0,0,1,7.014,14H5.25a.888.888,0,0,1-.875-.875V11.375H.875q-.014,0-.109-.014a.984.984,0,0,1-.314-.109H.438l-.007-.007-.007-.007a.369.369,0,0,1-.1-.055.153.153,0,0,0-.055-.055l-.041-.041a.876.876,0,0,0-.082-.1l-.007-.014-.007-.014q-.041-.068-.068-.123v-.014a1.363,1.363,0,0,1-.041-.15.012.012,0,0,1-.014-.014v-.014A.678.678,0,0,1,0,10.511v-.055a.4.4,0,0,0,.014-.1q.014-.055.027-.123v-.014a.855.855,0,0,1,.178-.3L1.64,7.776A8.918,8.918,0,0,0,5.147,9.745a15.75,15.75,0,0,0,4.929.741,17.708,17.708,0,0,0,2.174-.137v.014a.4.4,0,0,0,.014.1Zm-10.076-.9a.421.421,0,0,0-.308.13.428.428,0,0,0-.13.314.408.408,0,0,0,.13.308.428.428,0,0,0,.308.123.439.439,0,0,0,.308-.123.4.4,0,0,0,.13-.308.424.424,0,0,0-.13-.314.435.435,0,0,0-.308-.131Zm1.757,0a.426.426,0,0,0-.314.13.433.433,0,0,0-.13.314.4.4,0,0,0,.13.308.437.437,0,0,0,.314.123.427.427,0,0,0,.308-.123.406.406,0,0,0,.123-.308.447.447,0,0,0-.123-.314A.412.412,0,0,0,3.945,9.612ZM2.174,6.986H1.641a.984.984,0,0,1-.314-.109q-.014,0-.014-.007a.006.006,0,0,0-.007-.007H1.3A.527.527,0,0,1,1.217,6.8a.279.279,0,0,1-.068-.041A.544.544,0,0,1,1.108,6.7a.527.527,0,0,1-.068-.082L1.019,6.6l-.007-.007Q.971,6.521.944,6.466V6.439A.8.8,0,0,1,.9,6.3L.9,6.288.889,6.274a.678.678,0,0,1-.014-.137V6.069a.37.37,0,0,0,.014-.082Q.9,5.932.916,5.864V5.85a.829.829,0,0,1,.3-.424l1-1.2a6.572,6.572,0,0,0,3.192,2.5,14.7,14.7,0,0,0,5.257,1.123l1.148,1.723q-.684.041-1.3.041A15.762,15.762,0,0,1,5.673,8.9,9.109,9.109,0,0,1,2.174,6.986Zm.9-.875a.446.446,0,0,0-.445.438.411.411,0,0,0,.13.308.432.432,0,0,0,.314.13.412.412,0,0,0,.308-.13A.417.417,0,0,0,3.5,6.549a.451.451,0,0,0-.123-.308.4.4,0,0,0-.308-.13Zm1.75.875a.446.446,0,0,0-.445.438.411.411,0,0,0,.13.308.432.432,0,0,0,.314.13.412.412,0,0,0,.308-.13.417.417,0,0,0,.123-.308.451.451,0,0,0-.123-.308.4.4,0,0,0-.308-.13Zm2.625.875a.406.406,0,0,0-.308.13.447.447,0,0,0,0,.616.406.406,0,0,0,.308.13A.444.444,0,0,0,7.889,8.3a.416.416,0,0,0-.13-.308.43.43,0,0,0-.314-.13Zm3.93-1.586-.014.027a.842.842,0,0,1-.041.137v.027q-.027.055-.068.123l-.007.007-.007.021-.082.082a.394.394,0,0,1-.041.055.31.31,0,0,1-.068.041.527.527,0,0,1-.082.068h-.007l-.007.014h-.014a1.313,1.313,0,0,1-.219.068A14.238,14.238,0,0,1,5.851,5.851a6.867,6.867,0,0,1-3.062-2.31L4.334,1.668a7.042,7.042,0,0,0,2.42,1.8,12.875,12.875,0,0,0,3.582,1.094l.711.861a.829.829,0,0,1,.3.424v.014q.014.068.027.123a.37.37,0,0,0,.014.082v.068a.688.688,0,0,1-.014.137ZM5.694,3.486a.438.438,0,0,0-.314.123.411.411,0,0,0-.13.308.421.421,0,0,0,.13.314.435.435,0,0,0,.314.13.444.444,0,0,0,.444-.444.415.415,0,0,0-.13-.308.427.427,0,0,0-.314-.123Zm1.75.875a.406.406,0,0,0-.308.13.447.447,0,0,0,0,.616.406.406,0,0,0,.308.13A.446.446,0,0,0,7.889,4.8a.411.411,0,0,0-.13-.308.432.432,0,0,0-.314-.13ZM9.2,5.236a.442.442,0,0,0-.437.438.426.426,0,0,0,.13.308.414.414,0,0,0,.307.129.426.426,0,0,0,.308-.13A.438.438,0,0,0,9.2,5.236ZM5.373.424A.025.025,0,0,1,5.4.4.72.72,0,0,1,5.592.177.15.15,0,0,1,5.633.15q0-.014.027-.027A.15.15,0,0,0,5.7.1.278.278,0,0,0,5.749.089.1.1,0,0,0,5.8.068.8.8,0,0,1,5.975.013.674.674,0,0,1,6.132,0,.822.822,0,0,1,6.3.014a.963.963,0,0,1,.164.055A.1.1,0,0,0,6.515.09.5.5,0,0,1,6.57.1a.13.13,0,0,1,.047.033.012.012,0,0,1,.014.014l.041.027a.936.936,0,0,1,.2.219L6.884.4l.007.021L9.352,3.378A8.886,8.886,0,0,1,4.922.957Z" transform="translate(0.001 0.001)" fill="#707070"/></svg>