<svg xmlns="http://www.w3.org/2000/svg" width="18.583" height="10.881" viewBox="0 0 18.583 10.881"><g transform="translate(0 -106.111)"><g transform="translate(3.403 115.1)"><path d="M93.775,353.794v1.891h11.776v-1.891Z" transform="translate(-93.775 -353.794)" fill="#707070"/></g><g transform="translate(1.15 106.111)"><path d="M33.452,106.111a1.776,1.776,0,0,0-1.774,1.774v2.31h.5a1.758,1.758,0,0,1,1.756,1.73h5.336v-5.814Z" transform="translate(-31.678 -106.111)" fill="#707070"/></g><g transform="translate(9.843 106.111)"><path d="M277.023,106.111h-5.815v5.814h5.336a1.758,1.758,0,0,1,1.756-1.73h.5v-2.31A1.776,1.776,0,0,0,277.023,106.111Z" transform="translate(-271.208 -106.111)" fill="#707070"/></g><g transform="translate(3.404 113.029)"><rect width="11.776" height="0.967" fill="#707070"/></g><g transform="translate(0 111.3)"><path d="M1.647,249.071H.652a.653.653,0,0,0-.652.652v5.039H2.3v-5.039A.653.653,0,0,0,1.647,249.071Z" transform="translate(0 -249.071)" fill="#707070"/></g><g transform="translate(16.283 111.3)"><path d="M450.288,249.07h-.995a.653.653,0,0,0-.652.652v5.039h2.3v-5.039h0A.653.653,0,0,0,450.288,249.07Z" transform="translate(-448.641 -249.07)" fill="#707070"/></g></g></svg>