<svg xmlns="http://www.w3.org/2000/svg" width="15.379" height="16.379" viewBox="0 0 15.379 16.379"><path d="M13.282,8.413A4.313,4.313,0,0,1,14.809,9.74a3.1,3.1,0,0,1,.576,1.615,5.145,5.145,0,0,1-.168,1.6,5.381,5.381,0,0,1-.624,1.439,4.506,4.506,0,0,1-1.28,1.383,3.3,3.3,0,0,1-1.623.592,3.218,3.218,0,0,1-1.783-.408.917.917,0,0,1-.344-.328,1.908,1.908,0,0,1-.208-.448,2.716,2.716,0,0,1-.1-.624q-.024-.392-.024-.664t.008-.8q.008-.528.008-.816a12.4,12.4,0,0,0-.208-2.223,2.008,2.008,0,0,1-.816.176,2.048,2.048,0,0,1-.752-.144,8.884,8.884,0,0,1-1.7,1.615,3.406,3.406,0,0,1-1.671.568,2.722,2.722,0,0,1-1.5-.336,4.826,4.826,0,0,1-1.168-.92A6.069,6.069,0,0,1,.566,9.8,4.654,4.654,0,0,1,.031,8.1a3.149,3.149,0,0,1,.24-1.608A2.753,2.753,0,0,1,1.35,5.262a1.482,1.482,0,0,1,.5-.128,1.539,1.539,0,0,1,.608.12,5.02,5.02,0,0,1,.688.312q.32.176.744.44t.8.5q.376.24.824.488a8.561,8.561,0,0,0,.832.408A2.112,2.112,0,0,1,6.8,6.717,9.481,9.481,0,0,1,6.18,3.9a3.883,3.883,0,0,1,.288-1.527,3.134,3.134,0,0,1,.76-1.112A4.474,4.474,0,0,1,8.316.536,5.068,5.068,0,0,1,9.547.12,6.507,6.507,0,0,1,10.786,0a4.117,4.117,0,0,1,2.559.776,2.547,2.547,0,0,1,1.024,2.151,1.328,1.328,0,0,1-.528.944,6.11,6.11,0,0,1-1.208.847q-.68.368-1.623.9a11.764,11.764,0,0,0-1.5.984,2.027,2.027,0,0,1,.624.847,11.228,11.228,0,0,1,3.151.959ZM8.219,7.165a.966.966,0,0,0-.72.3,1.009,1.009,0,0,0-.3.728.975.975,0,0,0,.3.72.985.985,0,0,0,.72.3,1,1,0,0,0,.728-.3.964.964,0,0,0,.3-.72,1,1,0,0,0-.3-.728.984.984,0,0,0-.728-.3Z" transform="translate(-0.012)" fill="#707070"/></svg>