<svg xmlns="http://www.w3.org/2000/svg" width="15" height="14.997" viewBox="0 0 15 14.997"><g transform="translate(-0.437 -0.438)"><path d="M8.511,7.168A1.344,1.344,0,1,1,7.168,5.824,1.344,1.344,0,0,1,8.511,7.168Z" transform="translate(0.768 0.768)" fill="#707070"/><path d="M14.806,9.432A2.108,2.108,0,0,0,13.319,5.82c-.09,0-.194,0-.311.014.086-.074.163-.144.229-.209a2.119,2.119,0,0,0-1.49-3.615h-.008a2.1,2.1,0,0,0-1.494.625c-.066.066-.136.144-.21.229.009-.118.014-.221.014-.311a2.115,2.115,0,1,0-4.23,0c0,.089,0,.193.014.311-.074-.086-.144-.163-.21-.229A2.1,2.1,0,0,0,4.127,2.01h0A2.122,2.122,0,0,0,2.633,5.624c.065.065.143.136.23.21-.117-.009-.221-.014-.311-.014a2.115,2.115,0,1,0,0,4.23c.089,0,.193,0,.311-.014-.086.073-.163.144-.229.21a2.11,2.11,0,0,0,1.494,3.606h.008a2.1,2.1,0,0,0,1.488-.615c.065-.065.136-.143.209-.229-.009.117-.014.221-.014.311a2.115,2.115,0,0,0,4.23,0c0-.089,0-.193-.014-.311.074.086.144.163.21.23a2.1,2.1,0,0,0,1.489.615h.008a2.109,2.109,0,0,0,1.5-3.607c-.066-.066-.144-.136-.229-.21.118.009.221.014.311.014a2.1,2.1,0,0,0,1.488-.619ZM7.935,10.59a2.655,2.655,0,1,1,2.655-2.655A2.655,2.655,0,0,1,7.935,10.59Z" transform="translate(0)" fill="#707070"/></g></svg>