<svg xmlns="http://www.w3.org/2000/svg" width="13.5" height="13.5" viewBox="0 0 13.5 13.5"><g transform="translate(-0.875 -0.875)"><path d="M.875,2.322A1.447,1.447,0,0,1,2.322.875H5.214A1.447,1.447,0,0,1,6.66,2.322V5.214A1.447,1.447,0,0,1,5.214,6.66H2.322A1.447,1.447,0,0,1,.875,5.214V2.322Zm7.714,0A1.447,1.447,0,0,1,10.036.875h2.893a1.447,1.447,0,0,1,1.446,1.447V5.214A1.447,1.447,0,0,1,12.928,6.66H10.036A1.447,1.447,0,0,1,8.589,5.214V2.322ZM.875,10.036A1.447,1.447,0,0,1,2.322,8.589H5.214A1.447,1.447,0,0,1,6.66,10.036v2.893a1.447,1.447,0,0,1-1.446,1.446H2.322A1.447,1.447,0,0,1,.875,12.928Zm7.714,0a1.447,1.447,0,0,1,1.447-1.447h2.893a1.447,1.447,0,0,1,1.447,1.447v2.893a1.447,1.447,0,0,1-1.447,1.447H10.036a1.447,1.447,0,0,1-1.447-1.447Z" transform="translate(0 0)" fill="#1a8ae5" fill-rule="evenodd"/></g></svg>