<svg xmlns="http://www.w3.org/2000/svg" width="14" height="14" viewBox="0 0 14 14"><g transform="translate(-321 -592)"><g transform="translate(-2614 -18625)"><circle cx="7" cy="7" r="7" transform="translate(2935 19217)" fill="rgba(236,236,236,0.7)"/><g transform="translate(2948.944 19217.191) rotate(90)"><path d="M16.875,2.25h.617V3.781h-.617Z" transform="translate(-10.154 0)"/><path d="M24.4,7.138,25.48,6.056l.437.437L24.835,7.575Z" transform="translate(-15.155 -2.762)"/><path d="M28.17,16.875H29.7v.617H28.17Z" transform="translate(-17.892 -10.234)"/><path d="M24.4,24.837l.437-.437,1.082,1.083-.437.436Z" transform="translate(-15.16 -15.316)"/><path d="M16.875,28.17h.617V29.7h-.617Z" transform="translate(-10.154 -18.051)"/><path d="M6.072,25.489l1.082-1.082.437.437L6.509,25.926Z" transform="translate(-2.773 -15.321)"/><path d="M2.25,16.875H3.781v.617H2.25Z" transform="translate(0 -10.234)"/><path d="M6.064,6.5,6.5,6.064,7.584,7.147l-.437.437Z" transform="translate(-2.768 -2.768)"/><path d="M13.1,11.25A1.852,1.852,0,1,0,14.954,13.1,1.852,1.852,0,0,0,13.1,11.25Z" transform="translate(-6.073 -6.152)"/></g></g></g></svg>