<svg xmlns="http://www.w3.org/2000/svg" width="30" height="30" viewBox="0 0 30 30"><g transform="translate(4020 10352)"><g transform="translate(-4200 -10994)"><rect width="30" height="30" rx="3" transform="translate(180 642)" fill="#1a8ae5"/><path d="M10.183,11.748V8.7h7.667a7.13,7.13,0,0,1,.2,1.679c0,4.677-3.137,8-7.864,8A8.191,8.191,0,1,1,10.192,2a7.842,7.842,0,0,1,5.48,2.138L13.345,6.4a4.5,4.5,0,0,0-3.154-1.212,5.014,5.014,0,0,0,0,10.026A4.245,4.245,0,0,0,14.7,11.756H10.183v-.008Z" transform="translate(185.277 647.178)" fill="#fff"/></g></g></svg>