<svg xmlns="http://www.w3.org/2000/svg" width="13.5" height="11.745" viewBox="0 0 13.5 11.745"><g transform="translate(-295 -317)"><path d="M2.25,3.375H12.375V5H2.25Z" transform="translate(292.75 313.625)" fill="#1a8ae5"/><path d="M2.25,6.75H12.375V8.37H2.25Z" transform="translate(292.75 313.625)" fill="#1a8ae5"/><path d="M2.25,10.125H12.375v1.62H2.25Z" transform="translate(292.75 313.625)" fill="#1a8ae5"/><path d="M2.25,13.5H12.375v1.62H2.25Z" transform="translate(292.75 313.625)" fill="#1a8ae5"/><path d="M14.625,3.375H16.18V5H14.625Z" transform="translate(292.32 313.625)" fill="#1a8ae5"/><path d="M14.625,6.75H16.18V8.37H14.625Z" transform="translate(292.32 313.625)" fill="#1a8ae5"/><path d="M14.625,10.125H16.18v1.62H14.625Z" transform="translate(292.32 313.625)" fill="#1a8ae5"/><path d="M14.625,13.5H16.18v1.62H14.625Z" transform="translate(292.32 313.625)" fill="#1a8ae5"/></g></svg>