<svg xmlns="http://www.w3.org/2000/svg" width="14" height="18" viewBox="0 0 14 18"><g transform="translate(-27 -130)"><rect width="4" height="13" rx="0.5" transform="translate(27 135)" fill="#707070"/><g transform="translate(23.605 128.65)"><path d="M5.6,3.35c.046-.076.094-.154.141-.235a.909.909,0,0,0,.086-.809,1.916,1.916,0,0,0-1.038-.919l-.11-.037-.172.345.083.068a.317.317,0,0,1,.1.2.466.466,0,0,1-.17.336c-.082.082-.172.161-.267.245A1.929,1.929,0,0,0,3.4,4.059q0,.016,0,.031a1.27,1.27,0,0,0,.39.893,1.293,1.293,0,0,0,.9.366h.773l-.1-.194A1.6,1.6,0,0,1,5.6,3.35ZM4.689,5.082a1.026,1.026,0,0,1-1.026-1q0-.013,0-.026a1.691,1.691,0,0,1,.765-1.31c.094-.083.192-.169.28-.257a.716.716,0,0,0,.249-.539A.545.545,0,0,0,4.9,1.73a1.5,1.5,0,0,1,.68.67.644.644,0,0,1-.067.58c-.046.079-.093.156-.138.231A1.878,1.878,0,0,0,5.04,5.082Z" transform="translate(0 0)" fill="#707070"/><path d="M22.994,16.667l-.007-.027a2.468,2.468,0,0,0-.694-.863l-.122-.1-.08.138a3.14,3.14,0,0,0-.407.925,1.8,1.8,0,0,0,.16,1.15l.036.078h.091a1.05,1.05,0,0,0,.833-.407A1.033,1.033,0,0,0,22.994,16.667Zm-.4.727a.783.783,0,0,1-.541.3,1.628,1.628,0,0,1,.19-1.6,1.875,1.875,0,0,1,.486.62l.006.021A.767.767,0,0,1,22.592,17.394Z" transform="translate(-16.076 -12.616)" fill="#707070"/></g><g transform="translate(32 141)" fill="#707070" stroke="#707070" stroke-width="0.6"><rect width="4" height="7" rx="0.5" stroke="none"/><rect x="0.3" y="0.3" width="3.4" height="6.4" rx="0.2" fill="none"/></g><g transform="translate(28.605 134.65)"><path d="M5.6,3.35c.046-.076.094-.154.141-.235a.909.909,0,0,0,.086-.809,1.916,1.916,0,0,0-1.038-.919l-.11-.037-.172.345.083.068a.317.317,0,0,1,.1.2.466.466,0,0,1-.17.336c-.082.082-.172.161-.267.245A1.929,1.929,0,0,0,3.4,4.059q0,.016,0,.031a1.27,1.27,0,0,0,.39.893,1.293,1.293,0,0,0,.9.366h.773l-.1-.194A1.6,1.6,0,0,1,5.6,3.35ZM4.689,5.082a1.026,1.026,0,0,1-1.026-1q0-.013,0-.026a1.691,1.691,0,0,1,.765-1.31c.094-.083.192-.169.28-.257a.716.716,0,0,0,.249-.539A.545.545,0,0,0,4.9,1.73a1.5,1.5,0,0,1,.68.67.644.644,0,0,1-.067.58c-.046.079-.093.156-.138.231A1.878,1.878,0,0,0,5.04,5.082Z" transform="translate(0 0)" fill="#707070"/><path d="M22.994,16.667l-.007-.027a2.468,2.468,0,0,0-.694-.863l-.122-.1-.08.138a3.14,3.14,0,0,0-.407.925,1.8,1.8,0,0,0,.16,1.15l.036.078h.091a1.05,1.05,0,0,0,.833-.407A1.033,1.033,0,0,0,22.994,16.667Zm-.4.727a.783.783,0,0,1-.541.3,1.628,1.628,0,0,1,.19-1.6,1.875,1.875,0,0,1,.486.62l.006.021A.767.767,0,0,1,22.592,17.394Z" transform="translate(-16.076 -12.616)" fill="#707070"/></g><g transform="translate(37 139)" fill="#707070" stroke="#707070" stroke-width="0.6"><rect width="4" height="9" rx="0.5" stroke="none"/><rect x="0.3" y="0.3" width="3.4" height="8.4" rx="0.2" fill="none"/></g><g transform="translate(33.605 132.65)"><path d="M5.6,3.35c.046-.076.094-.154.141-.235a.909.909,0,0,0,.086-.809,1.916,1.916,0,0,0-1.038-.919l-.11-.037-.172.345.083.068a.317.317,0,0,1,.1.2.466.466,0,0,1-.17.336c-.082.082-.172.161-.267.245A1.929,1.929,0,0,0,3.4,4.059q0,.016,0,.031a1.27,1.27,0,0,0,.39.893,1.293,1.293,0,0,0,.9.366h.773l-.1-.194A1.6,1.6,0,0,1,5.6,3.35ZM4.689,5.082a1.026,1.026,0,0,1-1.026-1q0-.013,0-.026a1.691,1.691,0,0,1,.765-1.31c.094-.083.192-.169.28-.257a.716.716,0,0,0,.249-.539A.545.545,0,0,0,4.9,1.73a1.5,1.5,0,0,1,.68.67.644.644,0,0,1-.067.58c-.046.079-.093.156-.138.231A1.878,1.878,0,0,0,5.04,5.082Z" transform="translate(0 0)" fill="#707070"/><path d="M22.994,16.667l-.007-.027a2.468,2.468,0,0,0-.694-.863l-.122-.1-.08.138a3.14,3.14,0,0,0-.407.925,1.8,1.8,0,0,0,.16,1.15l.036.078h.091a1.05,1.05,0,0,0,.833-.407A1.033,1.033,0,0,0,22.994,16.667Zm-.4.727a.783.783,0,0,1-.541.3,1.628,1.628,0,0,1,.19-1.6,1.875,1.875,0,0,1,.486.62l.006.021A.767.767,0,0,1,22.592,17.394Z" transform="translate(-16.076 -12.616)" fill="#707070"/></g></g></svg>