<svg xmlns="http://www.w3.org/2000/svg" width="18.835" height="22.957" viewBox="0 0 18.835 22.957"><g transform="translate(-34 -472.043)"><g transform="translate(29.344 470.593)"><g transform="translate(8.449 2)"><g transform="translate(0)"><g transform="translate(1.21 1.21)"><line x1="0.584" y1="0.584" fill="none" stroke="#707070" stroke-linecap="round" stroke-linejoin="round" stroke-miterlimit="10" stroke-width="1.1"/></g><g transform="translate(4.131)"><line y1="0.826" fill="none" stroke="#707070" stroke-linecap="round" stroke-linejoin="round" stroke-miterlimit="10" stroke-width="1.1"/></g><g transform="translate(6.468 1.21)"><line y1="0.584" x2="0.584" fill="none" stroke="#707070" stroke-linecap="round" stroke-linejoin="round" stroke-miterlimit="10" stroke-width="1.1"/></g><g transform="translate(0 4.131)"><line x2="0.826" transform="translate(7.435)" fill="none" stroke="#707070" stroke-linecap="round" stroke-linejoin="round" stroke-miterlimit="10" stroke-width="1.1"/><line x2="0.826" fill="none" stroke="#707070" stroke-linecap="round" stroke-linejoin="round" stroke-miterlimit="10" stroke-width="1.1"/></g></g></g><g transform="translate(8.449 2)"><g transform="translate(0)"><g transform="translate(1.21 1.21)"><line x1="0.584" y1="0.584" fill="none" stroke="#707070" stroke-linecap="round" stroke-linejoin="round" stroke-miterlimit="10" stroke-width="1.1"/></g><g transform="translate(4.131)"><line y1="0.826" fill="none" stroke="#707070" stroke-linecap="round" stroke-linejoin="round" stroke-miterlimit="10" stroke-width="1.1"/></g><g transform="translate(6.468 1.21)"><line y1="0.584" x2="0.584" fill="none" stroke="#707070" stroke-linecap="round" stroke-linejoin="round" stroke-miterlimit="10" stroke-width="1.1"/></g><g transform="translate(0 4.131)"><line x2="0.826" transform="translate(7.435)" fill="none" stroke="#707070" stroke-linecap="round" stroke-linejoin="round" stroke-miterlimit="10" stroke-width="1.1"/><line x2="0.826" fill="none" stroke="#707070" stroke-linecap="round" stroke-linejoin="round" stroke-miterlimit="10" stroke-width="1.1"/></g></g></g></g><path d="M19.221,10.8,12,10V4A2,2,0,0,0,8,4V16L4.969,14.788a2,2,0,0,0-2.64,1.225l-.113.34a1,1,0,0,0,.309,1.084l5.2,4.332a1,1,0,0,0,.64.231H19a2,2,0,0,0,2-2V12.79A2,2,0,0,0,19.221,10.8Z" transform="translate(31.835 473)" fill="#707070"/></g></svg>