<svg xmlns="http://www.w3.org/2000/svg" width="22.64" height="20.376" viewBox="0 0 22.64 20.376"><g transform="translate(448 4722)"><path d="M8.029,23.3h-4.9A1.617,1.617,0,0,1,1.5,21.7V12.1a1.617,1.617,0,0,1,1.632-1.6h4.9a1.617,1.617,0,0,1,1.632,1.6v9.6A1.617,1.617,0,0,1,8.029,23.3Z" transform="translate(-449.5 -4724.927)" fill="#707070"/><path d="M23.376,3H4.7A1.7,1.7,0,0,0,3,4.7V9.792H23.376V4.7L11.49,9.792v8.49h1.7v3.4h-1.7v1.7h7.641v-1.7H14.886v-3.4h8.49a1.7,1.7,0,0,0,1.7-1.7V4.7A1.7,1.7,0,0,0,23.376,3Z" transform="translate(-450.434 -4725)" fill="#707070"/><circle cx="0.736" cy="0.736" r="0.736" transform="translate(-444.604 -4703.888)" fill="#fff"/></g></svg>