<svg xmlns="http://www.w3.org/2000/svg" width="11.379" height="15.962" viewBox="0 0 11.379 15.962"><g transform="translate(-1681 -325)"><g transform="translate(1681.632 332.712)"><path d="M27.236,7.648,25.989,8.895Z" transform="translate(-18.486 -7.648)" fill="#707070"/><path d="M28.17,16.875h1.764v.711H28.17Z" transform="translate(-19.977 -13.959)" fill="#707070"/><path d="M24.4,24.9l.5-.5,1.247,1.247-.5.5Z" transform="translate(-17.402 -19.105)" fill="#707070"/><path d="M16.875,28.17h.711v1.764h-.711Z" transform="translate(-12.252 -21.683)" fill="#707070"/><path d="M6.072,25.654l1.247-1.247.5.5L6.575,26.157Z" transform="translate(-4.864 -19.11)" fill="#707070"/><path d="M2.25,16.875H4.014v.711H2.25Z" transform="translate(-2.25 -13.959)" fill="#707070"/><path d="M13.384,11.25a2.134,2.134,0,1,0,2.134,2.134A2.134,2.134,0,0,0,13.384,11.25Z" transform="translate(-8.405 -10.111)" fill="#707070"/></g><path d="M8.178.711H6.4V6.4H7.823l3.556,4.978H0L3.556,6.4H4.978V.711H3.2A.342.342,0,0,1,2.95.606a.342.342,0,0,1-.106-.25A.342.342,0,0,1,2.95.106.342.342,0,0,1,3.2,0H8.178a.342.342,0,0,1,.25.106.342.342,0,0,1,.106.25.342.342,0,0,1-.106.25A.342.342,0,0,1,8.178.711Z" transform="translate(1681 325)" fill="#707070"/></g></svg>