<svg xmlns="http://www.w3.org/2000/svg" width="18" height="15.75" viewBox="0 0 18 15.75"><g transform="translate(-0.003 -1.5)"><path d="M15.753,2.625H2.253A1.125,1.125,0,0,0,1.128,3.75V15a1.125,1.125,0,0,0,1.125,1.125h13.5A1.125,1.125,0,0,0,16.878,15V3.75a1.125,1.125,0,0,0-1.125-1.125ZM2.253,1.5A2.25,2.25,0,0,0,0,3.75V15a2.25,2.25,0,0,0,2.25,2.25h13.5A2.25,2.25,0,0,0,18,15V3.75a2.25,2.25,0,0,0-2.25-2.25Z" transform="translate(0)" fill="#707070" fill-rule="evenodd"/><path d="M12.355,11.414a.563.563,0,0,1,.649-.1L17.253,13.5v5.062H1.5v-2.25L4.48,13.664a.562.562,0,0,1,.709-.07l2.992,1.994,4.174-4.174Z" transform="translate(-0.375 -2.437)" fill="#707070"/><path d="M6.19,9.375A1.687,1.687,0,1,0,4.5,7.687,1.687,1.687,0,0,0,6.19,9.375Z" transform="translate(-1.125 -1.125)" fill="#707070" fill-rule="evenodd"/></g></svg>