<svg xmlns="http://www.w3.org/2000/svg" width="14.841" height="14.223" viewBox="0 0 14.841 14.223"><path d="M3.783,2a.31.31,0,0,0-.309.309V3.388L1.439,4.841a.308.308,0,0,0-.13.251V6.329a.31.31,0,0,0,.309.309h6.8a.31.31,0,0,0,.309-.309V5.092a.308.308,0,0,0-.13-.251L6.565,3.388V2.309A.31.31,0,0,0,6.256,2ZM2.851,8.184a.31.31,0,0,0-.309.309V8.8H1.309A.31.31,0,0,0,1,9.111v6.8a.31.31,0,0,0,.309.309H8.67a.352.352,0,0,0,.351-.353V9.137A.334.334,0,0,0,8.688,8.8H7.479V8.535a.35.35,0,0,0-.35-.351ZM9.993,8.8a.339.339,0,0,0-.251.1.33.33,0,0,0-.085.205v2.164h6.184V9.111a.31.31,0,0,0-.309-.309H9.993Zm-7.45,1.237H7.48a.31.31,0,0,1,.309.309v4.329a.31.31,0,0,1-.309.309H2.543a.31.31,0,0,1-.309-.309V10.348A.31.31,0,0,1,2.543,10.039Zm8.331,0h3.7a.309.309,0,0,1,0,.618h-3.7a.309.309,0,0,1,0-.618Zm-8.022.618v3.71h4.32v-3.71Zm6.806,1.237v4.019a.323.323,0,0,0,.083.208.328.328,0,0,0,.244.1h5.548a.31.31,0,0,0,.309-.309V11.894Zm1.216.928a.31.31,0,0,1,.309.309v1.546a.309.309,0,1,1-.617,0V13.131A.31.31,0,0,1,10.873,12.821Z" transform="translate(-1 -2)" fill="#707070"/></svg>