<svg xmlns="http://www.w3.org/2000/svg" width="16.054" height="21.092" viewBox="0 0 16.054 21.092"><path d="M14.077,7.325A2.009,2.009,0,0,1,16.054,9.3V19.377a2.011,2.011,0,0,1-1.977,1.978H2.024a1.953,1.953,0,0,1-1.436-.589A1.9,1.9,0,0,1,0,19.378V9.3A1.9,1.9,0,0,1,.589,7.913a1.95,1.95,0,0,1,1.436-.588h.988V5.3A4.849,4.849,0,0,1,4.5,1.746,4.849,4.849,0,0,1,8.051.263a4.77,4.77,0,0,1,3.531,1.483A4.893,4.893,0,0,1,13.041,5.3V7.325Zm-6.05,9.039a1.926,1.926,0,0,0,1.412-.589,2.045,2.045,0,0,0,0-2.871,1.989,1.989,0,0,0-2.825,0,2.045,2.045,0,0,0,0,2.871A1.926,1.926,0,0,0,8.027,16.364Zm3.131-9.039V5.3a2.988,2.988,0,0,0-.918-2.189,3.016,3.016,0,0,0-2.213-.918,2.942,2.942,0,0,0-2.19.917A3.026,3.026,0,0,0,4.943,5.3V7.325h6.214Z" transform="translate(0 -0.263)" fill="#707070"/></svg>