<svg xmlns="http://www.w3.org/2000/svg" width="18.451" height="18.451" viewBox="0 0 18.451 18.451"><g transform="translate(-2 -2)"><path d="M16.883,13.806a.923.923,0,1,0,1.3,1.3l2.687-2.687.04-.043a.923.923,0,0,0,0-1.38l-.04-.043L18.188,8.27a.923.923,0,1,0-1.3,1.3l1.193,1.193H12.923a.923.923,0,0,0,0,1.845h5.153Z" transform="translate(-0.774 -0.465)" fill="#1a8ae5"/><path d="M4.768,2A2.768,2.768,0,0,0,2,4.768V17.683a2.768,2.768,0,0,0,2.768,2.768h8.764a2.306,2.306,0,0,0,2.306-2.306V15.592a1.848,1.848,0,0,1-.676-2.521H12.148a1.845,1.845,0,1,1,0-3.69h3.014a1.848,1.848,0,0,1,.676-2.521V4.306A2.306,2.306,0,0,0,13.532,2Z" fill="#1a8ae5"/></g></svg>