<svg xmlns="http://www.w3.org/2000/svg" width="15.355" height="13.224" viewBox="0 0 15.355 13.224"><g transform="translate(0 -1.526)"><path d="M13.549,15.669a2.2,2.2,0,0,1-2.4,1.919,2.2,2.2,0,0,1-2.4-1.919,2.2,2.2,0,0,1,2.4-1.919A2.2,2.2,0,0,1,13.549,15.669Z" transform="translate(-2.032 -2.839)" fill="#707070"/><path d="M14.71,3.75v9.6h-.96V3.75Z" transform="translate(-3.193 -0.517)" fill="#707070" fill-rule="evenodd"/><path d="M13.75,3.061a.96.96,0,0,1,.772-.941L17.4,1.544a.96.96,0,0,1,1.148.941V4.193l-4.8.96Z" transform="translate(-3.193)" fill="#707070"/><path d="M0,11.908a.48.48,0,0,1,.48-.48H3.839a.48.48,0,1,1,0,.96H.48A.48.48,0,0,1,0,11.908ZM0,8.069a.48.48,0,0,1,.48-.48h7.2a.48.48,0,1,1,0,.96H.48A.48.48,0,0,1,0,8.069ZM0,4.23a.48.48,0,0,1,.48-.48h7.2a.48.48,0,1,1,0,.96H.48A.48.48,0,0,1,0,4.23Z" transform="translate(0 -0.517)" fill="#707070" fill-rule="evenodd"/></g></svg>