<svg xmlns="http://www.w3.org/2000/svg" width="17.515" height="19.533" viewBox="0 0 17.515 19.533"><path d="M20.685,14.125l-1.819-1.819v-3.1A6.783,6.783,0,0,0,12.8,2.472V1.125H11.457V2.472A6.837,6.837,0,0,0,5.395,9.208v3.1L3.576,14.125a.613.613,0,0,0-.2.471v2.021a.633.633,0,0,0,.674.674H8.763a3.368,3.368,0,0,0,6.736,0h4.715a.633.633,0,0,0,.674-.674V14.6A.613.613,0,0,0,20.685,14.125ZM12.13,19.311A2.021,2.021,0,0,1,10.11,17.29h4.041A2.021,2.021,0,0,1,12.13,19.311Z" transform="translate(-3.373 -1.125)" fill="#707070"/></svg>