<svg xmlns="http://www.w3.org/2000/svg" width="14.547" height="14.595" viewBox="0 0 14.547 14.595"><path d="M0,7.3A7.1,7.1,0,0,1,.578,4.473,7.343,7.343,0,0,1,2.135,2.145,7.4,7.4,0,0,1,4.468.583,7.08,7.08,0,0,1,7.3,0H8.474a.285.285,0,0,1,.241.289l.048.906a4.808,4.808,0,0,0,1.408,3.336,4.692,4.692,0,0,0,3.277,1.456l.848.068q.25,0,.25.241v1a7.127,7.127,0,0,1-.959,3.659,7.192,7.192,0,0,1-2.642,2.661A7.086,7.086,0,0,1,7.3,14.6,7.358,7.358,0,0,1,2.115,12.46,7.369,7.369,0,0,1,.573,10.132,7.153,7.153,0,0,1,0,7.3Z" fill="#fff"/></svg>