<svg xmlns="http://www.w3.org/2000/svg" width="17.933" height="19.322" viewBox="0 0 17.933 19.322"><path d="M3.6,8.353a15.271,15.271,0,0,0,6.585,7.1l2.2-2.365a.817.817,0,0,1,1.027-.252,10.419,10.419,0,0,0,3.549.6.939.939,0,0,1,.677.3,1.022,1.022,0,0,1,.3.755v3.774a1.047,1.047,0,0,1-.3.729.909.909,0,0,1-.678.327,15.754,15.754,0,0,1-8.522-2.44A17.437,17.437,0,0,1,2.265,10.24,19.041,19.041,0,0,1,0,1.057,1.047,1.047,0,0,1,.3.328.912.912,0,0,1,.981,0h3.5a.885.885,0,0,1,.7.327,1.093,1.093,0,0,1,.28.729,12.868,12.868,0,0,0,.56,3.824,1.085,1.085,0,0,1-.234,1.107Z" fill="#707070"/></svg>