<svg xmlns="http://www.w3.org/2000/svg" width="9.61" height="14.667" viewBox="0 0 9.61 14.667"><g transform="translate(-5.623 -3.375)"><path d="M9,11.25h8.092v3.035a4.046,4.046,0,0,1-8.092,0Z" transform="translate(-1.859 -4.335)" fill="#707070"/><path d="M9.164,3.375a.506.506,0,0,1,.506.506V6.915a.506.506,0,0,1-1.012,0V3.881A.506.506,0,0,1,9.164,3.375Zm4.046,0a.506.506,0,0,1,.506.506V6.915a.506.506,0,1,1-1.012,0V3.881A.506.506,0,0,1,13.21,3.375ZM10.292,15.666a6.572,6.572,0,0,0,.389-2.682h1.012a7.446,7.446,0,0,1-.5,3.135,1.787,1.787,0,0,1-.88.887A1.824,1.824,0,0,1,9,17a2.061,2.061,0,0,0-1.872.046,1.207,1.207,0,0,0-.5.991H5.623a2.221,2.221,0,0,1,.929-1.821,3.036,3.036,0,0,1,2.772-.176.843.843,0,0,0,.6.031.791.791,0,0,0,.369-.41Z" transform="translate(0)" fill="#707070" fill-rule="evenodd"/></g></svg>