<svg xmlns="http://www.w3.org/2000/svg" width="13.409" height="13.409" viewBox="0 0 13.409 13.409"><path d="M8.7,2a6.7,6.7,0,1,0,6.7,6.7A6.7,6.7,0,0,0,8.7,2ZM8.73,9.409a.536.536,0,0,1-.541-.536V4.787a.541.541,0,0,1,1.081,0V8.872a.536.536,0,0,1-.541.536Zm-.025,3.4A4.14,4.14,0,0,1,6.262,5.289a.587.587,0,0,1,.813.13.574.574,0,0,1-.13.8,3.009,3.009,0,1,0,4.79,2.43,2.963,2.963,0,0,0-1.257-2.414.574.574,0,0,1-.1-.8.587.587,0,0,1,.813-.122A4.14,4.14,0,0,1,8.7,12.807Z" transform="translate(-2 -2)" fill="#707070"/></svg>