<svg xmlns="http://www.w3.org/2000/svg" width="32.625" height="33.763" viewBox="0 0 32.625 33.763"><g transform="translate(-1.688 -1.125)"><path d="M25.594,23.625H9.141a8.2,8.2,0,0,1-5.17-1.592,6.256,6.256,0,0,1-2.283-5.1,6.144,6.144,0,0,1,2.049-4.7,8.164,8.164,0,0,1,4.148-1.887s.006,0,.006,0a11.322,11.322,0,0,1,3.537-6.728A9.861,9.861,0,0,1,18,1.125a9.357,9.357,0,0,1,5.745,1.91A10.033,10.033,0,0,1,26.934,7.3,9.325,9.325,0,0,1,32.08,9.8a7.745,7.745,0,0,1,2.233,5.613,7.914,7.914,0,0,1-2.6,5.943A9.035,9.035,0,0,1,25.594,23.625ZM26.93,7.3Z" fill="#fff"/><path d="M6.6,30.264l3.5-5.247,1.872,1.248-3.5,5.247Z" fill="#fff"/><path d="M9.971,33.64l5.749-8.623,1.872,1.248-5.748,8.622Z" fill="#fff"/><path d="M17.846,30.264l3.5-5.247,1.872,1.248-3.5,5.247Z" fill="#fff"/><path d="M21.221,33.64l5.748-8.622,1.872,1.248-5.748,8.622Z" fill="#fff"/></g></svg>