<svg xmlns="http://www.w3.org/2000/svg" width="23.981" height="24.625" viewBox="0 0 23.981 24.625"><path d="M14.242,9.858a4.283,4.283,0,1,0,4.283,4.283,4.283,4.283,0,0,0-4.283-4.283Zm9.246,4.283a8.861,8.861,0,0,1-.088,1.2l2.607,2.04a.62.62,0,0,1,.141.791l-2.466,4.257a.623.623,0,0,1-.757.264L19.86,21.458a9.451,9.451,0,0,1-2.078,1.214l-.458,3.254a.639.639,0,0,1-.616.528H11.776a.643.643,0,0,1-.616-.51L10.7,22.689a9.063,9.063,0,0,1-2.078-1.214L5.558,22.705a.623.623,0,0,1-.757-.263L2.336,18.186a.62.62,0,0,1,.141-.791l2.607-2.04A9.345,9.345,0,0,1,5,14.14a8.861,8.861,0,0,1,.088-1.2L2.476,10.9a.62.62,0,0,1-.141-.791L4.8,5.856a.623.623,0,0,1,.757-.264L8.623,6.823A9.451,9.451,0,0,1,10.7,5.61l.458-3.254a.639.639,0,0,1,.616-.528h4.931a.643.643,0,0,1,.616.51l.458,3.254a9.063,9.063,0,0,1,2.082,1.214l3.062-1.231a.623.623,0,0,1,.757.263L26.148,10.1a.62.62,0,0,1-.141.791L23.4,12.927a9.345,9.345,0,0,1,.088,1.213Z" transform="translate(-2.251 -1.828)" fill="#707070"/></svg>