<svg xmlns="http://www.w3.org/2000/svg" width="25.981" height="19.77" viewBox="0 0 25.981 19.77"><path d="M7.266,12a5.155,5.155,0,0,0-5.154,5.138v.13a3.8,3.8,0,0,1,.667-.065,3.8,3.8,0,0,1,3.577,2.6l.406.878a26.018,26.018,0,0,1,6.324-.878,24.642,24.642,0,0,1,6.194.862l.471-1.057a3.726,3.726,0,0,1,4.178-2.341v-.13A5.155,5.155,0,0,0,18.777,12ZM2.779,18.243a2.732,2.732,0,0,0-.992,5.284l1.268,3.268c.52,1.8,2.823,1.853,3.089,1.853H19.915c.26,0,2.55-.047,3.057-1.8l1.284-3.317A2.735,2.735,0,1,0,20.712,20l-.862,1.935a23.632,23.632,0,0,0-6.763-1.089,25.445,25.445,0,0,0-6.91,1.089l-.8-1.756A2.737,2.737,0,0,0,2.779,18.243ZM3.2,28.762l-.423.862A1.486,1.486,0,0,0,2.7,30.762a1.434,1.434,0,0,0,.732.845,1.485,1.485,0,0,0,2-.65l.618-1.268A4.85,4.85,0,0,1,3.2,28.762Zm19.64.016a4.846,4.846,0,0,1-2.845.91l.618,1.268a1.483,1.483,0,0,0,1.333.813,1.52,1.52,0,0,0,.667-.163,1.477,1.477,0,0,0,.65-1.984Z" transform="translate(-0.031 -12)" fill="#707070"/></svg>