<svg xmlns="http://www.w3.org/2000/svg" width="23.19" height="21.533" viewBox="0 0 23.19 21.533"><path d="M15.828,6.141a.782.782,0,0,0,.828-.828V2.828a.828.828,0,0,0-1.656,0V5.313A.782.782,0,0,0,15.828,6.141Z" transform="translate(-4.233 -2)" fill="#707070"/><path d="M7.788,8.947a.8.8,0,0,0,1.159,0,.8.8,0,0,0,0-1.159L7.208,6.048A.82.82,0,0,0,6.048,7.208Z" transform="translate(-2.653 -2.653)" fill="#707070"/><path d="M2.828,16.656H5.313a.828.828,0,0,0,0-1.656H2.828a.828.828,0,0,0,0,1.656Z" transform="translate(-2 -4.233)" fill="#707070"/><path d="M25,15.828a.782.782,0,0,0,.828.828h2.485a.828.828,0,0,0,0-1.656H25.828A.782.782,0,0,0,25,15.828Z" transform="translate(-5.951 -4.233)" fill="#707070"/><path d="M22.928,9.2a.752.752,0,0,0,.58-.248l1.739-1.739a.82.82,0,0,0-1.159-1.159L22.348,7.788a.8.8,0,0,0,0,1.159A.752.752,0,0,0,22.928,9.2Z" transform="translate(-5.453 -2.653)" fill="#707070"/><path d="M8.663,17.441a.724.724,0,0,0,.745.5H19.843a.8.8,0,0,0,.745-.5,6.626,6.626,0,1,0-11.926,0Z" transform="translate(-3.031 -3.031)" fill="#707070"/><path d="M24.361,22H2.828a.828.828,0,1,0,0,1.656H24.361a.828.828,0,1,0,0-1.656Z" transform="translate(-2 -5.436)" fill="#707070"/><path d="M21.381,26H7.183C6.473,26,6,26.331,6,26.828s.473.828,1.183.828h14.2c.71,0,1.183-.331,1.183-.828S22.091,26,21.381,26Z" transform="translate(-2.687 -6.123)" fill="#707070"/></svg>