<svg xmlns="http://www.w3.org/2000/svg" width="14" height="12.5" viewBox="0 0 14 12.5"><g transform="translate(-2.25 -4.506)"><path d="M2.25,30.381h14v1h-14Z" transform="translate(0 -14.375)" fill="#707070"/><path d="M16.25,23.256h1a3,3,0,1,0-6,0h5C16.251,22.152,16.249,22.152,16.25,23.256Z" transform="translate(-5 -8.75)" fill="#707070"/><path d="M28.125,24.756h2.5v1h-2.5Z" transform="translate(-14.375 -11.25)" fill="#707070"/><path d="M24.4,16.826l1.753-1.753.707.708-1.753,1.752Z" transform="translate(-12.304 -5.871)" fill="#707070"/><path d="M16.67,7.3l-1.3,1.29V4.506h-1V8.591L13.08,7.3l-.7.7,2.5,2.5,2.5-2.5-.7-.7Z" transform="translate(-5.625)" fill="#707070"/><path d="M6.067,15.779l.708-.707,1.753,1.752-.708.708Z" transform="translate(-2.121 -5.87)" fill="#707070"/><path d="M2.25,24.756h2.5v1H2.25Z" transform="translate(0 -11.25)" fill="#707070"/></g></svg>